<svg width="89" height="45" fill="none" xmlns="http://www.w3.org/2000/svg"><path d="M89 41.35c0 3.97-.86 7.87-2.58 11.67a72.88 72.88 0 0 1-7.24 12.5c-.12.17-.25.33-.39.48l3.4 4.21c.23.3.25.7.06 1.02-.1.15-2.23 3.61-5.66 6.55a25.82 25.82 0 0 1-6.95 4.28.9.9 0 0 1-.9-.17l-2.93-2.58a.9.9 0 0 1-.18-.22c-2.57 1.33-7.37 3.1-15.26 3.74-6.99.57-12.72-.31-17.03-2.62-.24-.13-.61-.31-1.02-.5-.7-.35-1.42-.7-1.82-.94L29.17 78c-3.86-2.23-11.04-6.38-16.5-15.85-4.64-8.03-5.12-12.02-5.55-15.55-.25-2.1-.47-3.9-1.56-6.34C2.78 34.05.5 32.8.49 32.8a.91.91 0 0 1-.46-.58.9.9 0 0 1 .12-.73c.45-.64 2.8-3.89 5.09-3.92 1.1-.02 1.86.36 2.4.64.57.29.59.28.75.16.17-.13.27-.37.4-.74.34-.9.85-2.25 3.47-2.31 2.08-.05 3.24 1.04 4.09 1.94.88-1.77 3.29-6.3 6.44-9.9a32.98 32.98 0 0 1 6.05-5.26 28.62 28.62 0 0 1 2.64-1.66c-.62-1.14-.89-1.92-1.1-2.53a3.9 3.9 0 0 0-.94-1.71c-1.9-2.04-.4-5.38-.13-5.79.16-.22.4-.37.68-.4.51-.06.83.23 1.4.76.95.88 2.94 2.71 6.3 3.59 3.01.79 6.51.62 9.6.48 1.95-.1 3.8-.18 5.25 0 4.76.57 14.67 1.76 22.81 9.06a45.43 45.43 0 0 1 9.82 12.67c.58 1.12 1.1 2.25 1.54 3.37A30.81 30.81 0 0 1 89 41.34Zm-2.28 4.88c1.24-6.64-.25-13.11-3.1-18.75a16.6 16.6 0 0 0-7.49-1.43c-4.74.1-6.24.92-6.26.92a.9.9 0 0 1-1.21-.3.88.88 0 0 1 .28-1.21c.18-.11 1.87-1.08 7.16-1.2 2.62-.05 4.71.36 6.19.8a43.16 43.16 0 0 0-8.12-9.83 29.98 29.98 0 0 0-4.78-3.5c-.8.33-3.1 1.07-6.96.67-4.5-.46-6.95-.63-6.97-.64a.89.89 0 1 1 .12-1.77c.02 0 2.5.17 7.04.64 1.98.2 3.48.08 4.52-.1-5.82-2.85-11.56-3.54-14.81-3.93-1.3-.16-3.08-.08-4.95.01-3.22.15-6.86.32-10.14-.53a15.68 15.68 0 0 1-6.8-3.76c-.2.83-.32 2 .3 2.67.83.9 1.06 1.57 1.33 2.35.25.74.57 1.66 1.56 3.26.91 1.47 2.11 1.5 4 1.44 1.24-.04 2.65-.09 3.9.64 2.17 1.27 1.67 2.81 1.34 3.83-.18.55-.33 1.04-.22 1.54.39.04 1.46-.28 2.27-.53 1.84-.56 4.36-1.33 6.9-.91 1.42.23 2.3.66 2.74 1.34.52.8.3 1.64.13 2.32-.23.9-.21 1.07.16 1.33 1.43.98 2.73 1.26 4.53 1.64.76.16 1.62.34 2.58.6a4.65 4.65 0 0 1 3.15 2.3c.87 1.72.63 4.18-.76 7.76a21.74 21.74 0 0 0-1.46 7.54v.02c0 .78.37 1.47.93 2.24 4.92 5.13 7.7 10.79 7.96 16.36.04 1.07 0 2.2-.1 3.35.31 1.25 1.28 2 2.2 2.32 1.16.38 2.78.25 3.86-1.25a71.06 71.06 0 0 0 7.06-12.2c.58-1.29 1.05-2.58 1.41-3.87-.43-.56-2.51-3.2-6.11-5.61-.43.18-3 1.28-5.27 1.41-1.14.07-2.6.1-3.1-.09l.62-1.66-.07-.02c.02 0 .52.1 2.44 0 1.2-.07 2.54-.48 3.49-.81-4.7-2.7-6.37-3.1-6.38-3.1a.9.9 0 0 1-.68-1.06.89.89 0 0 1 1.04-.68c.2.03 2.04.47 7.29 3.52a29.62 29.62 0 0 1 7.24 5.92ZM69.5 80.19a25.24 25.24 0 0 0 5.93-3.76 29.66 29.66 0 0 0 4.96-5.6L77.7 67.5c-.94 1.21-2.46 3.17-3.53 4.42a40.61 40.61 0 0 1-6.24 5.77.92.92 0 0 1-.18.1l-.54.38 2.28 2.02Zm-.18-5.91a36.58 36.58 0 0 0 3.5-3.52c.72-.84 1.67-2.03 2.5-3.08a5.31 5.31 0 0 1-4-1.48c-.52 3.06-1.35 6-2 8.08Zm-2.58 2.05c.44-1.21 2.58-7.27 3.14-12.83-.06-.35-.1-.71-.09-1.08.03-1.72-.09-3.36-.36-4.88-1.02-5.57-4.08-9.2-5.9-11.37a40.58 40.58 0 0 1-1.08-1.33 43.9 43.9 0 0 0-5.06-4.45c-7.44-5.64-11-5.3-12.71-5.12l-.25.02c-.44.04-1.24.29-2.1.55-2.2.68-5.22 1.62-7.44.74-2.06-.82-2.25-2.9-2.42-4.9-.13-1.44-.27-2.93-1.04-4.1-1.65-2.48-5.9-1.23-8.15-.1-.89.45-1.56 1-2.14 1.5-1.02.83-2.06 1.69-3.64 1.3-1-.26-1.66-.95-2.28-1.63-.8-.85-1.5-1.6-2.92-1.56-1.41.04-1.56.44-1.84 1.16a3.11 3.11 0 0 1-1 1.54c-1.06.8-1.96.34-2.62 0a3.12 3.12 0 0 0-1.58-.44c-.83 0-2.18 1.3-3.12 2.46 1.06.9 2.94 3.01 5.04 7.71a21.22 21.22 0 0 1 1.7 6.86c.41 3.35.87 7.16 5.33 14.87 5.23 9.06 11.88 12.9 15.85 15.2l1.37.8a27 27 0 0 0 1.66.85c.44.21.84.4 1.09.54 3.71 1.99 8.62 2.83 14.61 2.52a47.18 47.18 0 0 1-17.36-9.43c-10.39-9.02-16.06-26.54-16.3-27.28a.89.89 0 0 1 1.7-.54c.05.17 5.21 16.1 14.32 25.13.58-1.75 1.74-5.82 1.09-8.65-.27-1.16-.52-2.16-.74-3.05-.55-2.2-.95-3.78-1.03-5.64v-.04a.89.89 0 0 1 1.78-.03c.06 1.6.41 3.04.9 4.98l1.66-1.73a.9.9 0 0 1 1.29 1.23l-2.44 2.54.31 1.35c.89 3.87-1 9.32-1.4 10.36l.03.03a43.86 43.86 0 0 0 10.02 6.48c-1.29-2.37-2.95-6.24-1.72-8.7.81-1.63 2.29-2.88 3.7-4.08 1.56-1.32 3.03-2.56 3.58-4.2a.9.9 0 0 1 1.69.58c-.71 2.1-2.44 3.56-4.11 4.97-.6.52-1.2 1.02-1.73 1.53 1.16.38 3.35 1 5.13 1.02 2.55.03 6.15-1.24 6.18-1.25a.9.9 0 0 1 .6 1.67c-.16.06-3.93 1.39-6.8 1.36-2.51-.03-5.54-1.05-6.34-1.34-.12.18-.22.35-.3.54-1.12 2.21 1.72 7.31 2.8 8.92.05.06.08.13.1.2 5.07 2 8.83 2.49 8.9 2.5h.02c8.06-1.23 11.66-3.68 12.42-4.26Zm-5.62-35.2c.04-1.92.37-4.76 1.57-7.87 1.16-2.99 1.44-5.11.83-6.3-.34-.67-1-1.13-2.02-1.4-.92-.25-1.72-.42-2.5-.58-1.84-.4-3.44-.73-5.16-1.92-1.45-1-1.1-2.4-.88-3.23.1-.36.2-.77.1-.9-.03-.07-.28-.36-1.53-.57-2.13-.35-4.33.32-6.1.86-1.63.5-2.82.86-3.7.37a1.63 1.63 0 0 1-.79-1.04c-.27-1.03.01-1.89.24-2.58.3-.98.39-1.2-.56-1.76-.8-.46-1.84-.43-2.94-.39-1.69.06-3.77.13-5.26-1.84-1.17.64-5.16 3-8.3 6.56-3.28 3.75-5.8 8.73-6.39 9.94l.2.07c.65.16 1.04-.1 2.07-.95.63-.52 1.41-1.16 2.48-1.7 3.45-1.74 8.25-2.6 10.44.7 1.02 1.54 1.18 3.34 1.32 4.92.17 1.91.31 3.01 1.3 3.4 1.65.66 4.32-.17 6.27-.78.98-.3 1.83-.56 2.46-.62l.23-.02c1.94-.2 5.97-.59 13.97 5.47.93.7 1.81 1.43 2.65 2.16Z" fill="#DFE2EB"/></svg>