<svg aria-hidden="true" style="position: absolute; width: 0; height: 0; overflow: hidden;" version="1.1" xmlns="http://www.w3.org/2000/svg" xmlns:xlink="http://www.w3.org/1999/xlink">
<defs>
<symbol id="icon-airletter1" viewBox="0 0 33 32">
<path d="M30.417 15.726l-1.274-1.286v-12.229l1.069-1.086c0.095-0.098 0.153-0.232 0.153-0.38s-0.058-0.282-0.153-0.38l0 0c-0.097-0.099-0.231-0.16-0.38-0.16s-0.283 0.061-0.38 0.16l-0 0-1.069 1.080h-12.097l-1.28-1.286c-0.096-0.097-0.23-0.157-0.377-0.157s-0.281 0.060-0.377 0.157l-0 0c-0.096 0.099-0.156 0.234-0.156 0.383s0.059 0.284 0.156 0.383l-0-0 1.217 1.229-3.777 16.171c-0.207 0.261-0.331 0.594-0.331 0.957 0 0.736 0.513 1.352 1.201 1.509l0.010 0.002 2.411 0.497c0.722 0.16 1.254 0.794 1.254 1.553 0 0.21-0.041 0.411-0.115 0.595l0.004-0.011c-0.234 0.581-0.793 0.983-1.446 0.983-0.115 0-0.228-0.013-0.336-0.036l0.010 0.002-9.029-1.92c-0.169-0.037-0.363-0.058-0.562-0.058-1.207 0-2.235 0.772-2.614 1.85l-0.006 0.019c-0.098 0.275-0.155 0.592-0.155 0.923 0 0.511 0.136 0.991 0.374 1.405l-0.007-0.014c0.4 0.709 1.086 1.2 1.88 1.354l0.034 0.006c1.116 0.234 1.942 1.21 1.942 2.379 0 0.337-0.069 0.659-0.193 0.951l0.006-0.016c-0.026 0.061-0.040 0.132-0.040 0.206 0 0.298 0.24 0.54 0.537 0.543h0c0.206 0 0.406-0.126 0.491-0.331 0.17-0.398 0.268-0.861 0.268-1.348 0-1.691-1.192-3.104-2.782-3.443l-0.023-0.004-0.040-0.006c-0.493-0.102-0.901-0.406-1.138-0.82l-0.004-0.008c-0.145-0.247-0.231-0.545-0.231-0.862 0-0.201 0.034-0.394 0.097-0.573l-0.004 0.012c0.236-0.672 0.865-1.145 1.605-1.145 0.124 0 0.244 0.013 0.361 0.038l-0.011-0.002 9.023 1.931c0.164 0.036 0.353 0.057 0.546 0.057 1.102 0 2.046-0.678 2.436-1.64l0.006-0.018c0.121-0.294 0.191-0.635 0.191-0.993 0-1.278-0.895-2.348-2.093-2.615l-0.018-0.003-2.406-0.497c-0.165-0.033-0.296-0.154-0.342-0.311l-0.001-0.003c-0.013-0.041-0.021-0.088-0.021-0.137 0-0.080 0.020-0.155 0.056-0.22l-0.001 0.002 15.954-3.8 1.217 1.229c0.097 0.099 0.231 0.16 0.38 0.16s0.283-0.061 0.38-0.16l0-0c0.096-0.099 0.156-0.234 0.156-0.383s-0.059-0.284-0.156-0.383l0 0zM27.309 2.526l-4.971 5.029-4.983-5.029h9.954zM16.36 3.057l5.211 5.269-8.429 8.52 3.223-13.789zM13.897 17.611l8.434-8.52 5.217 5.269-13.651 3.257zM28.069 13.354l-4.977-5.029 4.977-5.029v10.057z"></path>
</symbol>
<symbol id="icon-logo" viewBox="0 0 117 30">
<path d="M5.546 16.937l2.276-2.496 4.898 8.563h6.573l-7.774-12.83 7.774-10.175h-6.858l-4.961 7.22-1.928 2.923v-10.144h-5.545v23.004h5.546v-6.067zM29.577 21.472c0.147 0.675 0.316 1.185 0.506 1.533h5.325v-0.269c-0.463-0.832-0.706-2.033-0.727-3.603v-7.568c-0.032-1.854-0.679-3.313-1.943-4.376s-2.987-1.596-5.167-1.596-3.977 0.516-5.387 1.548c-1.401 1.033-2.102 2.376-2.102 4.029h5.325c0-1.243 0.632-1.864 1.896-1.864 1.36 0 2.039 0.784 2.039 2.354v0.9h-1.644c-2.612 0-4.603 0.474-5.972 1.423s-2.054 2.349-2.054 4.203c0 1.474 0.564 2.702 1.69 3.681 1.127 0.969 2.496 1.454 4.108 1.454 1.759 0 3.128-0.617 4.108-1.849zM28.392 19.102c-0.431 0.284-0.979 0.426-1.643 0.426-0.506 0-0.922-0.147-1.248-0.442-0.327-0.306-0.49-0.701-0.49-1.185 0-1.664 0.927-2.496 2.781-2.496h1.549v2.733c-0.19 0.357-0.506 0.679-0.949 0.964zM53.514 14.583c0 2.655-0.6 4.777-1.801 6.368-1.19 1.58-2.802 2.37-4.834 2.37-1.57 0-2.86-0.574-3.871-1.722v7.979h-5.325v-23.668h4.977l0.158 1.58c1.021-1.264 2.365-1.896 4.029-1.896 2.106 0 3.745 0.779 4.914 2.338 1.169 1.549 1.754 3.682 1.754 6.399v0.253zM48.19 14.251c0-3.033-0.885-4.55-2.654-4.55-1.264 0-2.106 0.453-2.528 1.36v6.73c0.463 0.948 1.316 1.422 2.56 1.422 1.695 0 2.57-1.464 2.622-4.393v-0.568zM61.494 23.321c1.917 0 3.439-0.721 4.566-2.165l0.158 1.849h4.993v-17.096h-5.356v11.992c-0.516 0.874-1.385 1.312-2.607 1.312-1.422 0-2.133-0.732-2.133-2.196v-11.108h-5.325v11.076c0 2.043 0.479 3.613 1.438 4.708 0.969 1.085 2.391 1.628 4.266 1.628zM83.092 18.202c0-0.453-0.237-0.817-0.711-1.090-0.474-0.274-1.375-0.559-2.702-0.853s-2.422-0.679-3.287-1.153c-0.864-0.485-1.522-1.069-1.975-1.754s-0.679-1.469-0.679-2.354c0-1.57 0.648-2.86 1.944-3.871 1.088-0.858 2.458-1.356 4.11-1.494v-3.883h2.538v3.934c1.545 0.187 2.837 0.668 3.874 1.443 1.369 1.021 2.054 2.364 2.054 4.029h-5.34c0-1.37-0.722-2.054-2.165-2.054-0.558 0-1.027 0.158-1.406 0.474-0.379 0.306-0.569 0.69-0.569 1.153 0 0.474 0.232 0.859 0.695 1.153s1.201 0.537 2.212 0.727c1.021 0.19 1.917 0.416 2.686 0.679 2.57 0.885 3.855 2.47 3.855 4.756 0 1.559-0.696 2.828-2.086 3.808-1.038 0.737-2.308 1.196-3.811 1.379v3.899h-2.538v-3.849c-1.074-0.093-2.055-0.343-2.941-0.749-1.148-0.527-2.043-1.243-2.686-2.149s-0.964-1.859-0.964-2.86h4.977c0.021 0.79 0.284 1.369 0.79 1.737 0.506 0.358 1.153 0.537 1.944 0.537 0.726 0 1.269-0.147 1.627-0.442 0.369-0.296 0.553-0.68 0.553-1.153zM96.933 5.909v-4.25h-5.325v4.25h-2.18v3.697h2.18v8.484c0 1.759 0.437 3.070 1.311 3.934s2.228 1.296 4.061 1.296c1.043 0 2.043-0.153 3.002-0.458v-3.808c-0.358 0.064-0.8 0.095-1.327 0.095-0.685 0-1.143-0.126-1.375-0.379s-0.347-0.701-0.347-1.343v-7.821h2.812v-3.697h-2.812zM111.484 23.005c-0.19-0.348-0.358-0.859-0.506-1.533-0.98 1.232-2.349 1.849-4.108 1.849-1.612 0-2.981-0.485-4.108-1.454-1.127-0.979-1.69-2.207-1.69-3.681 0-1.854 0.685-3.255 2.054-4.203 1.369-0.949 3.36-1.422 5.972-1.422h1.644v-0.901c0-1.57-0.68-2.354-2.038-2.354-1.264 0-1.896 0.621-1.896 1.864h-5.325c0-1.653 0.701-2.996 2.102-4.029 1.411-1.032 3.207-1.548 5.387-1.548s3.903 0.532 5.167 1.596c1.264 1.063 1.912 2.523 1.943 4.376v7.568c0.021 1.57 0.264 2.77 0.727 3.603v0.268h-5.325zM108.151 19.529c0.664 0 1.211-0.142 1.644-0.426 0.442-0.285 0.758-0.606 0.948-0.964v-2.734h-1.549c-1.854 0-2.781 0.832-2.781 2.496 0 0.485 0.163 0.88 0.49 1.185 0.326 0.295 0.742 0.442 1.248 0.442z"></path>
</symbol>
<symbol id="icon-bar_chart-24px1" viewBox="0 0 32 32">
<path fill="#52555f" style="fill: var(--color1, #52555f)" d="M6.667 12.267h4v13.067h-4v-13.067zM14.133 6.667h3.733v18.667h-3.733v-18.667zM21.6 17.333h3.733v8h-3.733v-8z"></path>
</symbol>
<symbol id="icon-book1" viewBox="0 0 32 32">
<path d="M31.377 6.429h-2.109v-0.714c0.011-0.286-0.171-0.543-0.446-0.623-1.457-0.383-2.96-0.571-4.469-0.571-2.486 0-5.863 0.56-8.366 3.103-2.48-2.571-5.886-3.103-8.36-3.103-1.509 0-3.011 0.189-4.469 0.571-0.274 0.080-0.457 0.337-0.451 0.623v0.709h-2.080c-0.343 0-0.623 0.28-0.623 0.623v19.811c0.004 0.341 0.281 0.616 0.623 0.616 0.111 0 0.216-0.029 0.306-0.080l-0.003 0.002c0.057-0.029 6.263-3.423 14.92-1.24h0.303c8.686-2.2 14.886 1.189 14.92 1.24 0.089 0.051 0.195 0.082 0.309 0.082 0.341 0 0.617-0.273 0.623-0.613v-19.812c0-0.343-0.28-0.623-0.623-0.623zM1.24 25.869v-18.194h1.486v15.554c0 0.344 0.279 0.622 0.623 0.622 0.028 0 0.056-0.002 0.083-0.006l-0.003 0c1.286-0.194 2.583-0.297 3.88-0.309 1.794-0.029 3.589 0.24 5.297 0.8-0.823-0.105-1.775-0.165-2.741-0.165-3.112 0-6.079 0.624-8.781 1.753l0.151-0.056zM7.314 22.303c-1.131 0-2.257 0.074-3.371 0.217v-16.32c1.2-0.269 2.434-0.4 3.674-0.406 2.32 0 5.52 0.531 7.743 3.040l0.017 15.446c-1.291-0.84-3.811-1.977-8.063-1.977zM16.617 8.834c2.223-2.486 5.423-3.040 7.743-3.040 1.234 0 2.469 0.137 3.674 0.406v16.32c-1.109-0.143-2.229-0.217-3.354-0.223-4.229 0-6.754 1.137-8.063 1.977v-15.44zM30.754 25.869c-2.554-1.074-5.523-1.699-8.637-1.699-0.972 0-1.93 0.061-2.869 0.179l0.112-0.011c1.714-0.56 3.514-0.834 5.32-0.8 1.309 0.006 2.611 0.114 3.903 0.303 0.027 0.004 0.059 0.007 0.091 0.007 0.344 0 0.623-0.279 0.623-0.623 0-0 0-0.001 0-0.001v0-15.549h1.486l-0.029 18.194z"></path>
</symbol>
<symbol id="icon-calculator" viewBox="0 0 32 32">
<path fill="#52555f" style="fill: var(--color1, #52555f)" d="M27.248 0h-22.496c-1.552 0-2.832 1.264-2.832 2.816v26.368c0 1.552 1.264 2.816 2.816 2.816h22.496c1.552 0 2.816-1.264 2.816-2.816v-26.368c0.016-1.552-1.248-2.816-2.8-2.816zM28.192 29.184c0 0.528-0.432 0.944-0.944 0.944h-22.496c-0.521 0-0.944-0.423-0.944-0.944v0-26.368c0-0.528 0.432-0.944 0.944-0.944h22.496c0.512 0 0.944 0.416 0.944 0.944v26.368z"></path>
<path fill="#52555f" style="fill: var(--color1, #52555f)" d="M25.376 3.744h-18.752c-0.521 0-0.944 0.423-0.944 0.944v0 7.632c0 0.512 0.432 0.928 0.96 0.928h18.72c0.528 0 0.96-0.416 0.96-0.928v-7.632c0-0 0-0 0-0 0-0.521-0.423-0.944-0.944-0.944-0.006 0-0.011 0-0.017 0h0.001zM24.432 11.376h-16.864v-5.776h16.864v5.76zM10.368 15.12h-3.744c-0.521 0-0.944 0.423-0.944 0.944v0 3.744c0 0.528 0.432 0.944 0.96 0.944h3.728c0.528 0 0.944-0.416 0.944-0.944v-3.744c0-0.521-0.423-0.944-0.944-0.944v0zM9.44 18.88h-1.872v-1.888h1.872v1.888zM10.368 22.624h-3.744c-0.521 0-0.944 0.423-0.944 0.944v0 3.744c0 0.512 0.432 0.944 0.96 0.944h3.728c0.528 0 0.944-0.432 0.944-0.944v-3.744c0-0.521-0.423-0.944-0.944-0.944v0zM9.44 26.368h-1.872v-1.872h1.872v1.872zM17.872 15.12h-3.744c-0.521 0-0.944 0.423-0.944 0.944v0 3.744c0 0.528 0.416 0.944 0.944 0.944h3.744c0.528 0 0.944-0.416 0.944-0.944v-3.744c0-0.521-0.423-0.944-0.944-0.944v0zM16.944 18.88h-1.904v-1.888h1.888v1.888zM17.872 22.624h-3.744c-0.521 0-0.944 0.423-0.944 0.944v0 3.744c0 0.512 0.416 0.944 0.944 0.944h3.744c0.528 0 0.944-0.432 0.944-0.944v-3.744c0-0.521-0.423-0.944-0.944-0.944v0zM16.944 26.368h-1.904v-1.872h1.888v1.872zM25.376 15.12h-3.744c-0.521 0-0.944 0.423-0.944 0.944v0 11.248c0 0.512 0.416 0.944 0.944 0.944h3.744c0.512 0 0.944-0.432 0.944-0.944v-11.248c0-0 0-0 0-0 0-0.521-0.423-0.944-0.944-0.944-0.006 0-0.011 0-0.017 0h0.001zM24.432 26.368h-1.872v-9.376h1.872v9.376z"></path>
</symbol>
<symbol id="icon-calendar" viewBox="0 0 32 32">
<path fill="#52555f" style="fill: var(--color1, #52555f)" d="M27.968 3.312h-2.112v-0.512c0.005-0.037 0.008-0.079 0.008-0.123 0-0.521-0.423-0.944-0.944-0.944s-0.944 0.423-0.944 0.944c0 0.043 0.003 0.086 0.009 0.127l-0.001-0.005v0.512h-2.592v-0.512c-0.063-0.466-0.458-0.821-0.936-0.821s-0.873 0.355-0.935 0.817l-0.001 0.005v0.512h-2.56v-0.512c0-0.521-0.423-0.944-0.944-0.944s-0.944 0.423-0.944 0.944v0.512h-2.592v-0.512c-0.063-0.466-0.458-0.821-0.936-0.821s-0.873 0.355-0.935 0.816l-0.001 0.005v0.512h-2.608v-0.512c-0.063-0.466-0.458-0.821-0.936-0.821s-0.873 0.355-0.935 0.816l-0.001 0.005v0.512h-2.096c-2.223 0.009-4.023 1.809-4.032 4.031v18.769c0 2.224 1.808 4.032 4.032 4.032h23.936c2.224 0 4.032-1.808 4.032-4.032v-18.768c0-2.24-1.808-4.032-4.032-4.032zM30.128 26.112c0 1.184-0.96 2.16-2.16 2.16h-23.936c-1.184 0-2.16-0.96-2.16-2.16v-15.344h28.256v15.344zM30.128 8.896h-28.256v-1.552c0-1.184 0.96-2.16 2.16-2.16h2.112v0.368c0.063 0.466 0.458 0.821 0.936 0.821s0.873-0.355 0.935-0.816l0.001-0.005v-0.368h2.592v0.368c0.063 0.466 0.458 0.821 0.936 0.821s0.873-0.355 0.935-0.816l0.001-0.005v-0.368h2.56v0.368c0 0.521 0.423 0.944 0.944 0.944s0.944-0.423 0.944-0.944v0-0.368h2.576v0.368c0.063 0.466 0.458 0.821 0.936 0.821s0.873-0.355 0.935-0.816l0.001-0.005v-0.368h2.624v0.368c-0.005 0.037-0.008 0.079-0.008 0.123 0 0.521 0.423 0.944 0.944 0.944s0.944-0.423 0.944-0.944c0-0.043-0.003-0.086-0.009-0.128l0.001 0.005v-0.368h2.112c1.184 0 2.16 0.96 2.16 2.16v1.552z"></path>
<path fill="#52555f" style="fill: var(--color1, #52555f)" d="M10.448 12.768h-3.696c-0.521 0-0.944 0.423-0.944 0.944v0 3.824c0 0.512 0.432 0.944 0.944 0.944h3.696c0.528 0 0.944-0.432 0.944-0.944v-3.84c-0.009-0.514-0.428-0.928-0.944-0.928-0 0-0 0-0 0v0zM9.52 16.608h-1.84v-1.984h1.824v1.952zM17.856 12.768h-3.712c-0.514 0.009-0.928 0.428-0.928 0.944 0 0 0 0 0 0v0 3.824c0 0.512 0.416 0.944 0.928 0.944h3.712c0.512 0 0.928-0.432 0.928-0.944v-3.84c-0.009-0.509-0.419-0.919-0.927-0.928h-0.001zM16.912 16.608h-1.824v-1.984h1.824v1.952zM25.248 12.768h-3.696c-0.521 0-0.944 0.423-0.944 0.944v0 3.824c0 0.512 0.416 0.944 0.944 0.944h3.696c0.512 0 0.944-0.432 0.944-0.944v-3.84c-0.009-0.514-0.428-0.928-0.944-0.928-0 0-0 0-0 0v0zM24.304 16.608h-1.824v-1.984h1.824v1.952zM10.448 20.048h-3.696c-0 0-0 0-0 0-0.516 0-0.935 0.414-0.944 0.927v3.841c0 0.512 0.432 0.928 0.944 0.928h3.696c0.528 0 0.944-0.416 0.944-0.944v-3.824c-0.009-0.514-0.428-0.928-0.944-0.928-0 0-0 0-0 0v0zM9.52 23.872h-1.84v-1.952h1.824v1.952zM17.856 20.048h-3.712c-0.509 0.009-0.919 0.419-0.928 0.927v3.841c0 0.512 0.416 0.928 0.928 0.928h3.712c0.512 0 0.928-0.416 0.928-0.944v-3.824c-0.009-0.509-0.419-0.919-0.927-0.928h-0.001zM16.912 23.872h-1.824v-1.952h1.824v1.952zM25.248 20.048h-3.696c-0 0-0 0-0 0-0.516 0-0.935 0.414-0.944 0.927v3.841c0 0.512 0.416 0.928 0.944 0.928h3.696c0.512 0 0.944-0.416 0.944-0.944v-3.824c-0.009-0.514-0.428-0.928-0.944-0.928-0 0-0 0-0 0v0zM24.304 23.872h-1.824v-1.952h1.824v1.952z"></path>
</symbol>
<symbol id="icon-car1" viewBox="0 0 29 32">
<path d="M27.234 12.823l-0.611-0.743-2.166-6.594c-0.366-1.114-1.309-1.857-2.354-1.863h-15.394c-1.051 0-1.989 0.743-2.36 1.863l-2.12 6.514-0.886 0.931c-0.752 0.754-1.217 1.796-1.217 2.945 0 0.015 0 0.030 0 0.046l-0-0.002v9.611c0.006 1.571 1.137 2.846 2.52 2.846h1.583c1.389 0 2.514-1.274 2.52-2.846v-1.394h14.937v1.394c0.006 1.571 1.131 2.846 2.514 2.846h1.6c1.383 0 2.509-1.274 2.514-2.846v-9.869c0-0.004 0-0.008 0-0.013 0-1.088-0.41-2.080-1.084-2.831l0.003 0.004zM5.486 5.943c0.189-0.583 0.68-0.96 1.223-0.96h15.406c0.543 0 1.029 0.389 1.223 0.96l1.88 5.743h-1.406c-0.331-2.566-2.434-4.331-4.686-3.949-1.806 0.297-3.223 1.903-3.486 3.949h-12.040l1.886-5.737zM22.583 11.686h-5.726c0.331-1.8 1.886-2.949 3.469-2.571 1.184 0.345 2.069 1.334 2.255 2.554l0.002 0.018zM5.543 25.531c0 0.823-0.589 1.474-1.314 1.474h-1.589c-0.72 0-1.309-0.651-1.314-1.474v-1.789c0.366 0.263 0.84 0.394 1.314 0.394h2.903v1.394zM27.109 25.531c-0.006 0.823-0.589 1.474-1.314 1.474h-1.589c-0.726 0-1.309-0.663-1.314-1.474v-1.394h2.903c0.012 0 0.026 0 0.040 0 0.477 0 0.919-0.15 1.282-0.405l-0.007 0.005v1.794zM25.794 22.771h-23.154c-0.714 0-1.309-0.646-1.314-1.463v-5.389c0-0.754 0.297-1.474 0.8-1.96 0.011 0 0.023-0.017 0.029-0.023l0.817-0.88h22.811l0.577 0.709c0.006 0.011 0.023 0.017 0.029 0.034 0.457 0.486 0.714 1.16 0.714 1.863v5.646c0 0.811-0.589 1.469-1.309 1.463z"></path>
<path d="M8.074 15.794h-4.514c-0.337 0-0.606 0.309-0.606 0.686v3.554c0 0.377 0.269 0.686 0.6 0.686h4.514c0.337 0 0.606-0.309 0.606-0.686v-3.554c0-0.377-0.269-0.686-0.6-0.686zM7.469 19.349h-3.314v-2.189h3.314v2.189zM24.88 15.794h-4.514c-0.337 0-0.606 0.309-0.606 0.686v3.554c0 0.377 0.269 0.686 0.6 0.686h4.514c0.337 0 0.606-0.309 0.606-0.686v-3.554c0-0.377-0.269-0.686-0.6-0.686zM24.28 19.349h-3.314v-2.189h3.314v2.189zM17.126 18.669h-5.811c-0.331 0-0.6 0.303-0.6 0.686 0 0.371 0.269 0.68 0.6 0.68h5.817c0.331 0 0.606-0.309 0.606-0.686s-0.274-0.686-0.606-0.686zM17.126 16.549h-5.811c-0.331 0-0.6 0.309-0.6 0.686 0 0.371 0.269 0.68 0.6 0.68h5.817c0.331 0 0.606-0.309 0.606-0.686 0-0.371-0.274-0.686-0.606-0.686z"></path>
</symbol>
<symbol id="icon-close" viewBox="0 0 32 32">
<path fill="none" stroke="#52555f" style="stroke: var(--color1, #52555f)" stroke-linejoin="miter" stroke-linecap="butt" stroke-miterlimit="4" stroke-width="4.5714" d="M2.286 2.286l27.429 27.429M2.286 29.714l27.429-27.429"></path>
</symbol>
<symbol id="icon-cocktail1" viewBox="0 0 28 32">
<path d="M6.743 2.697c-0.229 0-0.411 0.217-0.411 0.48v0.2c0 0.263 0.183 0.474 0.411 0.474s0.411-0.211 0.411-0.474v-0.2c0-0.263-0.183-0.48-0.411-0.48zM5.543 4.286h-0.171c-0.229 0-0.417 0.206-0.417 0.469s0.183 0.474 0.411 0.474h0.171c0.229 0 0.417-0.211 0.417-0.474s-0.183-0.474-0.411-0.474zM6.183 3.446l-0.12-0.143c-0.070-0.084-0.174-0.138-0.291-0.138s-0.222 0.053-0.291 0.137l-0 0.001c-0.075 0.090-0.12 0.207-0.12 0.334s0.045 0.244 0.121 0.335l-0.001-0.001 0.12 0.143c0.080 0.091 0.189 0.143 0.291 0.143 0.109 0 0.211-0.051 0.291-0.143 0.075-0.090 0.12-0.207 0.12-0.334s-0.045-0.244-0.121-0.335l0.001 0.001zM6.183 5.394c-0.070-0.084-0.174-0.138-0.291-0.138s-0.222 0.053-0.291 0.137l-0 0.001-0.12 0.143c-0.076 0.091-0.122 0.208-0.122 0.337s0.046 0.247 0.123 0.338l-0.001-0.001c0.080 0.091 0.183 0.137 0.286 0.137 0.114 0 0.217-0.046 0.297-0.137l0.12-0.143c0.076-0.091 0.122-0.208 0.122-0.337s-0.046-0.247-0.123-0.338l0.001 0.001z"></path>
<path d="M24.749 3.914h-13.943c-0.153-1.033-0.604-1.94-1.26-2.655l0.003 0.004c-0.696-0.767-1.693-1.251-2.803-1.263l-0.002-0c-2.286 0-4.131 2.131-4.131 4.754 0 2.629 1.851 4.76 4.131 4.76 0.417 0 0.829-0.074 1.223-0.217 0.598 0.66 1.362 1.158 2.227 1.43l0.036 0.010c0.566 0.171 0.989 0.703 1.086 1.36l0.526 3.497c0.167 1.222 0.785 2.275 1.677 3.005l0.008 0.007c0.686 0.537 1.086 1.417 1.086 2.343v7.131c-0.315 0.246-0.516 0.626-0.516 1.052 0 0.022 0.001 0.043 0.002 0.065l-0-0.003c-1.029 0.246-1.88 0.469-2.526 0.663-0.44 0.137-0.771 0.257-1.011 0.366-0.229 0.103-0.646 0.291-0.646 0.737 0 0.594 0.674 0.697 1.211 0.777 0.463 0.069 1.109 0.131 1.909 0.171 1.36 0.080 2.731 0.091 2.743 0.091h0.011c0.011 0 1.389-0.011 2.743-0.091 0.806-0.046 1.451-0.103 1.914-0.171 0.537-0.080 1.211-0.183 1.211-0.777 0-0.469-0.377-0.714-1.754-1.131-0.547-0.177-1.427-0.411-2.316-0.619l-0.307-0.061c0-0.343-0.114-0.663-0.32-0.897v-7.297c0-0.931 0.4-1.811 1.086-2.343 0.9-0.739 1.516-1.794 1.677-2.993l0.003-0.024 0.526-3.497c0.073-0.633 0.5-1.151 1.074-1.356l0.011-0.004c1.886-0.566 3.303-2.274 3.754-4.383v-0.023c0.097-0.457 0.149-0.926 0.149-1.406v-0.446c0-0.309-0.217-0.566-0.491-0.566zM6.743 8.56c-1.829 0-3.314-1.703-3.314-3.806 0-2.097 1.486-3.806 3.309-3.806 0.834 0 1.629 0.36 2.24 1.011 0.488 0.527 0.836 1.192 0.979 1.929l0.004 0.025h-0.423c-0.326-1.446-1.469-2.491-2.8-2.491-1.6 0-2.897 1.497-2.897 3.331 0 1.84 1.297 3.337 2.897 3.337 0.114 0 0.24-0.011 0.354-0.029 0.080 0.149 0.166 0.291 0.257 0.434-0.2 0.046-0.406 0.063-0.611 0.063zM8 3.303c-0.070-0.084-0.174-0.138-0.291-0.138s-0.222 0.053-0.291 0.137l-0 0.001-0.126 0.143c-0.075 0.090-0.12 0.207-0.12 0.335 0 0.048 0.006 0.094 0.018 0.138l-0.001-0.004h-0.371c-0.274 0-0.491 0.257-0.491 0.571v0.44c0 0.48 0.051 0.954 0.143 1.406l0.006 0.029c0.057 0.263 0.131 0.526 0.217 0.777-1.12-0.029-2.029-1.086-2.029-2.383 0-1.314 0.931-2.383 2.074-2.383 0.874 0 1.64 0.634 1.943 1.543h-0.64c0.049-0.079 0.078-0.175 0.078-0.277 0-0.127-0.045-0.244-0.119-0.335l0.001 0.001zM17.051 30.069c1.451 0.337 2.36 0.589 2.931 0.771-1.040 0.12-2.714 0.2-4.206 0.211-1.486-0.011-3.16-0.091-4.2-0.211 0.543-0.171 1.4-0.411 2.743-0.731 0.371-0.086 0.629-0.486 0.6-0.926v-0.029c0-0.149 0.086-0.274 0.206-0.314 0.183-0.057 0.309-0.246 0.309-0.457v-7.429c0-0.629-0.137-1.234-0.389-1.771 0.22 0.017 0.476 0.027 0.734 0.027s0.515-0.010 0.768-0.029l-0.034 0.002c-0.251 0.537-0.389 1.143-0.389 1.771v7.526c0 0.16 0.074 0.314 0.194 0.4 0.081 0.063 0.132 0.161 0.132 0.271 0 0.009-0 0.019-0.001 0.028l0-0.001c-0.023 0.423 0.234 0.806 0.6 0.891zM24.411 4.926c0 0.286-0.023 0.571-0.057 0.84h-12.429c-0.229 0-0.411 0.211-0.411 0.474s0.183 0.474 0.411 0.474h12.2c-0.446 1.468-1.554 2.61-2.967 3.093l-0.033 0.010c-0.912 0.325-1.575 1.13-1.69 2.102l-0.001 0.012-0.52 3.497c-0.13 0.973-0.621 1.813-1.331 2.395l-0.007 0.005c-0.109 0.080-0.434 0.286-0.497 0.32-0.326 0.143-2.263 0.143-2.589 0-0.057-0.034-0.389-0.234-0.503-0.326-0.713-0.586-1.201-1.424-1.329-2.375l-0.002-0.019-0.526-3.491c-0.117-0.985-0.78-1.789-1.674-2.109l-0.018-0.006c-0.844-0.268-1.552-0.763-2.073-1.414l-0.007-0.008c-0.392-0.478-0.706-1.038-0.909-1.649l-0.011-0.037h2.571c0.229 0 0.417-0.211 0.417-0.474s-0.189-0.474-0.417-0.474h-2.8c-0.034-0.274-0.057-0.554-0.057-0.84v-0.057h17.257v0.057z"></path>
</symbol>
<symbol id="icon-delete1" viewBox="0 0 32 32">
<path fill="#52555f" style="fill: var(--color1, #52555f)" d="M28.978 7.147l-0.693-2.116c-0.263-0.791-0.996-1.351-1.86-1.351-0.002 0-0.005 0-0.007 0h-5.937v-1.902c0-0.972-0.788-1.76-1.76-1.76v0h-5.44c-0.964 0.010-1.742 0.794-1.742 1.76 0 0 0 0 0 0v0 1.92h-5.938c-0.853 0-1.6 0.533-1.867 1.351l-0.711 2.133c-0.047 0.144-0.074 0.309-0.074 0.48 0 0.872 0.698 1.581 1.565 1.6l0.002 0h0.747l1.618 20.089c0.124 1.493 1.387 2.667 2.88 2.667h12.8c1.511 0 2.773-1.173 2.898-2.667l1.618-20.089h0.409c0.88-0.005 1.591-0.72 1.591-1.6 0-0.178-0.029-0.349-0.083-0.509l0.003 0.011zM13.422 1.867h5.191v1.813h-5.209v-1.813zM23.609 29.191c-0.047 0.525-0.481 0.935-1.013 0.942h-12.819c-0.001 0-0.002 0-0.004 0-0.538 0-0.98-0.412-1.027-0.938l-0-0.004-1.6-19.947h18.044l-1.6 19.947zM4.924 7.36l0.587-1.724c0-0.053 0.036-0.071 0.089-0.071h20.8c0.053 0 0.089 0.018 0.107 0.071l0.587 1.724h-22.169z"></path>
<path fill="#52555f" style="fill: var(--color1, #52555f)" d="M20.587 29.12h0.053c0.498 0 0.907-0.391 0.942-0.889l0.889-16.889c0.001-0.016 0.002-0.035 0.002-0.053 0-0.521-0.423-0.944-0.944-0.944-0.502 0-0.913 0.393-0.942 0.888l-0 0.003-0.889 16.889c-0.018 0.533 0.373 0.978 0.889 0.996zM10.489 28.231c0.103 0.417 0.474 0.721 0.916 0.721 0.474 0 0.866-0.35 0.932-0.805l0.001-0.005-0.907-16.907c-0.029-0.498-0.44-0.89-0.942-0.89-0.521 0-0.944 0.423-0.944 0.944 0 0.019 0.001 0.037 0.002 0.056l-0-0.003 0.924 16.889zM16 29.12c0.533 0 0.96-0.409 0.96-0.942v-16.889c0-0.52-0.422-0.942-0.942-0.942s-0.942 0.422-0.942 0.942v0 16.889c0 0.533 0.427 0.942 0.942 0.942z"></path>
</symbol>
<symbol id="icon-eda61" viewBox="0 0 32 32">
<path fill="#ff751d" style="fill: var(--color2, #ff751d)" d="M31.966 25.027l-0.123-0.73c-0.073-0.466-0.438-0.803-0.859-0.803-0.056 0-0.112 0.006-0.163 0.017l-2.453 0.505 1.112-0.831c0.24-0.196 0.392-0.492 0.392-0.824 0-0.172-0.041-0.335-0.114-0.479l0.003 0.006-0.337-0.668c-0.109-0.222-0.3-0.389-0.533-0.464l-0.006-0.002c-0.066-0.020-0.141-0.031-0.219-0.031-0.041 0-0.082 0.003-0.122 0.009l0.004-0.001c0.118-0.764 0.185-1.544 0.185-2.341 0-0.354-0.191-0.657-0.46-0.786 0.354-0.949 0.376-2.021 0.028-3.009-0.030-0.083-0.074-0.154-0.13-0.214l0 0c-0.051-0.058-0.112-0.106-0.182-0.139l-0.003-0.001c-0.387-0.18-0.84-0.285-1.318-0.285-0.058 0-0.115 0.002-0.172 0.005l0.008-0c-0.062-1.443-1.134-2.599-2.436-2.599-0.168 0-0.337 0.022-0.505 0.056 0.112-0.747 0.056-1.538-0.213-2.274-0.028-0.087-0.070-0.161-0.124-0.226l0.001 0.001c-0.052-0.059-0.116-0.106-0.187-0.139l-0.003-0.001c-0.416-0.193-0.904-0.306-1.417-0.306-0.761 0-1.464 0.247-2.034 0.666l0.010-0.007c-0.234-0.754-0.607-1.405-1.094-1.954l0.005 0.005c-0.146-0.168-0.342-0.258-0.556-0.258-0.208 0-0.404 0.090-0.556 0.258l-2.234 2.509c-0.397-0.403-0.95-0.653-1.56-0.653-0.139 0-0.275 0.013-0.407 0.038l0.014-0.002c-0.483 0.090-0.926 0.354-1.263 0.741-0.293-0.162-0.643-0.258-1.015-0.258-0.256 0-0.501 0.045-0.728 0.128l0.015-0.005v-1.937c0-1.336-0.954-2.425-2.139-2.448v-1.089c0.359-0.073 0.64-0.427 0.64-0.853v-2.493c-0.011-0.477-0.354-0.865-0.78-0.865h-3.761c-0.421 0-0.769 0.387-0.769 0.865v2.487c0 0.427 0.281 0.786 0.64 0.853v1.095c-1.185 0.022-2.145 1.112-2.145 2.448v15.119c-0.927 0.942-1.499 2.235-1.499 3.661 0 0.009 0 0.019 0 0.028v-0.001c0 2.835 2.223 5.137 4.957 5.137h18.515c0.629 0 1.224-0.314 1.628-0.859 0.393-0.528 0.561-1.213 0.466-1.886l3.7 0.747c0.047 0.010 0.1 0.015 0.155 0.015 0.194 0 0.371-0.069 0.508-0.185l-0.001 0.001c0.197-0.157 0.326-0.393 0.359-0.657l0.101-0.752c0.011-0.107 0.011-0.213-0.006-0.32-0.051-0.373-0.314-0.673-0.661-0.779l-0.007-0.002-1.302-0.337 2.448-0.505c0.23-0.045 0.432-0.191 0.561-0.404 0.14-0.219 0.185-0.477 0.146-0.735zM26.678 14.995c0.281 0 0.55 0.056 0.814 0.146 0.083 0.273 0.13 0.586 0.13 0.91 0 0.539-0.131 1.046-0.363 1.494l0.009-0.018h-1.241l0.393-0.449c0.084-0.098 0.135-0.225 0.135-0.365s-0.051-0.267-0.135-0.366l0.001 0.001c-0.079-0.093-0.195-0.151-0.326-0.151s-0.247 0.058-0.325 0.15l-0 0.001-0.213 0.236c-0.1-0.368-0.27-0.688-0.497-0.958l0.003 0.004c0.425-0.39 0.992-0.631 1.616-0.634h0.001zM24.067 12.401c0.837 0 1.516 0.764 1.516 1.701v0.056c-0.488 0.174-0.938 0.472-1.319 0.876-0.049-0.023-0.112-0.048-0.177-0.069l-0.014-0.004c-0.113-0.782-0.595-1.431-1.261-1.773l-0.013-0.006c0.249-0.458 0.722-0.766 1.267-0.78l0.002-0zM21.625 9.516c0.314 0 0.618 0.056 0.921 0.168 0.097 0.31 0.152 0.667 0.152 1.036 0 0.489-0.097 0.954-0.273 1.379l0.009-0.024c-0.253 0.258-0.46 0.573-0.595 0.921-0.481 0.029-0.911 0.227-1.236 0.534l0.001-0.001c-0.102-0.207-0.218-0.386-0.352-0.549l0.004 0.005 1.067-1.19c0.082-0.097 0.132-0.223 0.132-0.362 0-0.141-0.052-0.27-0.138-0.369l0.001 0.001c-0.079-0.095-0.197-0.154-0.328-0.154s-0.25 0.060-0.328 0.154l-0.001 0.001-1.157 1.302c-0.225-0.118-0.46-0.202-0.707-0.236 0.107-0.618 0.376-1.201 0.786-1.667 0.496-0.58 1.226-0.947 2.042-0.954h0.001zM18.077 17.527h-0.399c-0.058-0.189-0.229-0.325-0.432-0.331l-0.001-0c-0.204 0.006-0.374 0.142-0.431 0.328l-0.001 0.003h-0.472c0.044-0.078 0.070-0.172 0.070-0.272 0-0.141-0.052-0.27-0.138-0.369l0.001 0.001c-0.079-0.093-0.195-0.151-0.326-0.151s-0.247 0.058-0.325 0.15l-0.001 0.001-0.438 0.494c-0.036 0.042-0.067 0.090-0.089 0.142l-0.001 0.003h-0.943c-0.352-0.602-0.568-1.32-0.589-2.088l-0-0.006h7.338c-0.024 0.774-0.242 1.493-0.606 2.115l0.011-0.021h-0.977c-0.025-0.056-0.057-0.104-0.096-0.146l0 0-0.432-0.494c-0.079-0.095-0.197-0.154-0.328-0.154s-0.25 0.060-0.328 0.154l-0.001 0.001c-0.085 0.098-0.138 0.227-0.138 0.368 0 0.1 0.026 0.193 0.072 0.275l-0.001-0.003zM17.005 14.4c0.168-0.73 0.764-1.258 1.46-1.258s1.291 0.533 1.46 1.258h-2.919zM17.948 8.028c0.438 0.533 0.73 1.168 0.876 1.83-0.226 0.273-0.423 0.583-0.578 0.917l-0.011 0.027c-0.067-0.048-0.151-0.078-0.241-0.079h-0.618c-0.253 0-0.46 0.236-0.46 0.522 0 0.281 0.208 0.517 0.46 0.517h0.545c-0.034 0.14-0.056 0.286-0.073 0.432-0.185 0.056-0.359 0.129-0.522 0.225-0.293-0.578-0.797-1.013-1.409-1.208l-0.017-0.005c-0.038-0.25-0.103-0.475-0.192-0.687l0.007 0.019 2.234-2.509zM9.583 12.705c-0.022-0.084-0.045-0.168-0.056-0.258-0.135-0.859 0.382-1.679 1.145-1.825 0.076-0.016 0.164-0.026 0.254-0.026 0.32 0 0.613 0.118 0.837 0.313l-0.002-0.001c0.101 0.090 0.225 0.123 0.354 0.095 0.133-0.028 0.243-0.11 0.308-0.222l0.001-0.002c0.24-0.415 0.675-0.693 1.177-0.707l0.002-0c0.685 0 1.269 0.55 1.387 1.308 0.011 0.084 0.017 0.174 0.017 0.269 0 0.264 0.185 0.488 0.427 0.511 0.517 0.056 0.954 0.415 1.156 0.932-0.272 0.367-0.461 0.81-0.531 1.292l-0.002 0.016h-2.639c-0.326 0-0.606 0.225-0.73 0.545-0.541-0.418-1.228-0.669-1.974-0.669-0.474 0-0.925 0.102-1.331 0.285l0.021-0.008c-0.075 0.033-0.138 0.078-0.191 0.134l-0 0c-0.056 0.056-0.095 0.135-0.123 0.213-0.097 0.266-0.171 0.577-0.211 0.9l-0.002 0.021c-0.168-0.213-0.281-0.477-0.331-0.769-0.016-0.086-0.025-0.185-0.025-0.286 0-0.603 0.328-1.129 0.815-1.411l0.008-0.004c0.225-0.112 0.326-0.393 0.247-0.646zM10.964 17.387l0.129 0.14h-1.112c-0.136-0.345-0.215-0.745-0.215-1.164 0-0.326 0.048-0.64 0.136-0.936l-0.006 0.023c0.264-0.101 0.533-0.146 0.814-0.146 0.844 0.003 1.586 0.431 2.027 1.081l0.005 0.009c0.079 0.393 0.197 0.775 0.354 1.134h-0.702l-0.775-0.876c-0.079-0.095-0.197-0.154-0.328-0.154s-0.25 0.060-0.328 0.154l-0.001 0.001c-0.084 0.098-0.135 0.225-0.135 0.365s0.051 0.267 0.135 0.366l-0.001-0.001zM8.999 17.527h-1.651c0.073-0.505 0.337-0.932 0.713-1.179 0.225 0.326 0.511 0.595 0.842 0.78l0.090 0.393zM4.323 1.039h3.453v2.139h-3.453v-2.139zM7.135 4.216v1.083h-2.167v-1.083h2.173zM2.824 9.847h3.003c0.258 0 0.466-0.23 0.466-0.517s-0.208-0.522-0.466-0.522h-3.003v-1.067c0-0.775 0.561-1.404 1.258-1.404h3.947c0.691 0 1.252 0.629 1.252 1.404v1.067h-0.859c-0.258 0-0.466 0.236-0.466 0.522 0 0.281 0.208 0.517 0.466 0.517h0.859v0.46c-0.438 0.493-0.705 1.145-0.705 1.86 0 0.16 0.013 0.317 0.039 0.469l-0.002-0.016v0.006c-0.623 0.51-1.018 1.28-1.018 2.142 0 0.226 0.027 0.446 0.078 0.656l-0.004-0.019c-0.23 0.14-0.438 0.326-0.618 0.539h-4.227v-6.097zM2.824 16.977h3.688c-0.045 0.18-0.084 0.359-0.101 0.55h-0.079c-0.421 0-0.769 0.387-0.769 0.865 0 0.825 0.067 1.628 0.202 2.42-0.135-0.017-0.291-0.027-0.449-0.027-0.527 0-1.028 0.107-1.484 0.3l0.025-0.009c-0.629 0.275-0.797 0.668-0.837 0.938l-0.196 0.112v-5.142zM8.685 23.354c0.168 0.146 0.264 0.275 0.326 0.365h-0.017c-0.7-0.102-1.316-0.409-1.799-0.855l0.002 0.002c-0.077-0.076-0.183-0.124-0.3-0.124s-0.223 0.047-0.3 0.124l0-0c-0.485 0.449-1.106 0.756-1.796 0.851l-0.017 0.002c0.056-0.090 0.157-0.219 0.326-0.365 0.109-0.102 0.176-0.246 0.176-0.406 0-0.051-0.007-0.101-0.020-0.148l0.001 0.004c-0.044-0.192-0.198-0.338-0.39-0.37l-0.003-0c-0.449-0.056-0.735-0.191-0.87-0.281 0.347-0.204 0.764-0.324 1.209-0.324 0.051 0 0.101 0.002 0.151 0.005l-0.007-0c0.629 0 1.095 0.152 1.314 0.292 0.14 0.084 0.314 0.084 0.449 0 0.225-0.14 0.685-0.292 1.319-0.292 0.042-0.003 0.090-0.004 0.139-0.004 0.445 0 0.862 0.12 1.219 0.33l-0.011-0.006c-0.129 0.090-0.415 0.225-0.87 0.281-0.185 0.022-0.337 0.168-0.393 0.371-0.045 0.202 0.017 0.415 0.163 0.55zM7.759 29.659l0.017 0.095c0.056 0.337 0.168 0.64 0.331 0.898h-2.751c-2.231-0.022-4.031-1.836-4.031-4.070 0-0.010 0-0.020 0-0.030v0.002c0-1.549 0.842-2.897 2.088-3.599 0.14 0.118 0.32 0.225 0.533 0.303-0.084 0.163-0.146 0.337-0.157 0.511-0.017 0.241 0.045 0.466 0.185 0.64 0.18 0.23 0.455 0.348 0.825 0.348 0.488 0 1.128-0.219 1.712-0.584 0.135-0.079 0.264-0.168 0.382-0.264 0.123 0.095 0.247 0.185 0.382 0.264 0.485 0.327 1.073 0.539 1.707 0.583l0.011 0.001c0.365 0 0.646-0.118 0.825-0.348 0.135-0.168 0.202-0.393 0.185-0.634-0.018-0.192-0.074-0.367-0.161-0.523l0.003 0.007c0.208-0.084 0.393-0.185 0.533-0.303 0.992 0.571 1.714 1.516 1.976 2.639l0.005 0.028-3.273 1.392c-0.954 0.404-1.516 1.516-1.331 2.639zM24.792 30.17c-0.23 0.309-0.561 0.483-0.921 0.483h-0.488l-0.303-1.836c-0.045-0.281-0.286-0.466-0.539-0.415-0.253 0.056-0.415 0.326-0.371 0.606l0.269 1.645h-1.589l-0.208-1.235c-0.045-0.286-0.281-0.472-0.539-0.421-0.247 0.056-0.415 0.326-0.371 0.606l0.174 1.050h-3.705l-0.275-1.684c-0.045-0.281-0.286-0.466-0.539-0.415-0.247 0.056-0.415 0.326-0.371 0.606l0.247 1.493h-5.406c-0.578 0-1.067-0.449-1.179-1.089l-0.011-0.095c-0.107-0.629 0.208-1.258 0.747-1.488l1.819-0.775 0.135 0.82c0.045 0.253 0.236 0.427 0.455 0.427 0.028 0 0.056 0 0.084-0.011 0.253-0.056 0.421-0.32 0.371-0.601l-0.168-1.011 2.706-1.145c0.236-0.101 0.354-0.399 0.264-0.668-0.090-0.264-0.359-0.399-0.595-0.298l-1.258 0.533c-0.354-1.395-1.242-2.538-2.428-3.22l-0.025-0.013c-0.039-0.269-0.213-0.662-0.842-0.938-0.45-0.179-0.972-0.283-1.517-0.283-0.379 0-0.746 0.050-1.095 0.144l0.029-0.007v-0.314c0.011-0.281-0.197-0.517-0.449-0.517-0.112 0-0.213 0.039-0.292 0.112-0.073-0.545-0.112-1.089-0.118-1.651h15.068c0.253 0 0.46-0.23 0.46-0.517 0-0.281-0.208-0.517-0.46-0.517h-0.191c0.292-0.679 0.46-1.443 0.46-2.246 0-0.46-0.314-0.837-0.707-0.876 0.211-0.227 0.509-0.37 0.841-0.376l0.001-0c0.595 0 1.106 0.477 1.207 1.14 0.011 0.073 0.017 0.152 0.017 0.23 0 0.269 0.185 0.494 0.421 0.517 0.556 0.056 1.011 0.522 1.1 1.134 0.028 0.163 0.022 0.32 0 0.477h-0.5c-0.253 0-0.46 0.23-0.46 0.517s0.208 0.517 0.46 0.517h3.593c-0.011 0.954-0.118 1.881-0.32 2.779l-2.509 1.662c-0.146-0.596-0.505-1.091-0.99-1.409l-0.009-0.005c-0.293-0.19-0.651-0.303-1.036-0.303-0.275 0-0.537 0.058-0.773 0.162l0.012-0.005-5.165 2.195c-0.236 0.101-0.354 0.399-0.264 0.674 0.090 0.264 0.354 0.393 0.595 0.298l0.679-0.292 0.213 1.28c0.039 0.247 0.236 0.421 0.449 0.421 0.034 0 0.056 0 0.090-0.011 0.247-0.051 0.415-0.32 0.371-0.601l-0.241-1.46 3.604-1.538c0.337-0.14 0.702-0.112 1.011 0.084 0.314 0.197 0.528 0.533 0.595 0.921l0.932 5.659c0.067 0.393-0.028 0.786-0.253 1.095zM26.442 26.116c-0.219 0.045-0.376 0.253-0.382 0.494 0 0.247 0.146 0.466 0.359 0.517l3.447 0.887-0.090 0.646-3.992-0.803-0.623-3.773 3.481-2.302 0.281 0.578-2.931 2.189c-0.125 0.103-0.205 0.258-0.205 0.431 0 0.071 0.013 0.139 0.038 0.202l-0.001-0.004c0.084 0.225 0.298 0.359 0.511 0.314l4.604-0.949 0.112 0.618-4.609 0.954z"></path>
</symbol>
<symbol id="icon-google_symbol1" viewBox="0 0 32 32">
<path fill="#2196f3" style="fill: var(--color3, #2196f3)" d="M30.578 13.031c0.124 0 0.231 0.124 0.231 0.267v2.702c0 1.013-0.089 2.009-0.249 2.969-1.333 7.449-7.609 13.084-15.111 13.031-8.444-0.053-15.182-7.2-15.164-16.036 0.018-8.818 6.827-15.964 15.271-15.964 4.124 0 7.858 1.707 10.613 4.498 0.089 0.107 0.089 0.267 0 0.356l-3.644 3.858c-0.043 0.051-0.106 0.083-0.178 0.083s-0.135-0.032-0.177-0.083l-0-0c-1.688-1.705-4.026-2.764-6.612-2.773h-0.002c-5.336 0.109-9.62 4.46-9.62 9.811 0 0.069 0.001 0.139 0.002 0.208l-0-0.010c-0.003 0.086-0.004 0.186-0.004 0.288 0 5.353 4.271 9.709 9.592 9.846l0.013 0c4.338 0 8-2.987 9.209-7.111h-8.96c-0.13-0.010-0.231-0.117-0.231-0.248 0-0 0-0 0-0.001v0-5.422c0-0.142 0.107-0.267 0.231-0.267h14.773z"></path>
<path fill="#1e88e5" style="fill: var(--color4, #1e88e5)" d="M30.578 13.031h-1.849c0.124 0 0.249 0.124 0.249 0.267v2.702c0 1.013-0.089 2.009-0.267 2.969-1.172 7.021-6.918 12.397-14.023 12.992l-0.057 0.004 0.8 0.036c7.52 0.053 13.796-5.582 15.111-13.031 0.178-0.96 0.267-1.956 0.267-2.969v-2.702c0-0.005 0.001-0.012 0.001-0.018 0-0.137-0.111-0.249-0.249-0.249-0 0-0 0-0.001 0h0z"></path>
<path fill="#f44336" style="fill: var(--color5, #f44336)" d="M6.809 11.787l-4.622-3.52c2.545-4.906 7.565-8.213 13.362-8.267l0.007-0c4.124 0 7.858 1.707 10.613 4.498 0.089 0.107 0.089 0.267 0 0.356l-3.644 3.858c-0.043 0.051-0.106 0.083-0.178 0.083s-0.135-0.032-0.177-0.083l-0-0c-1.698-1.728-4.060-2.799-6.672-2.799-3.919 0-7.275 2.411-8.665 5.83l-0.022 0.063z"></path>
<path fill="#e53935" style="fill: var(--color6, #e53935)" d="M5.476 10.773l1.333 1.013c1.355-3.136 4.239-5.381 7.686-5.809l0.047-0.005h0.089c-0.261-0.025-0.564-0.040-0.871-0.040-3.536 0-6.621 1.93-8.26 4.793l-0.025 0.047zM24.32 4.498c0.107 0.107 0.107 0.267 0 0.356l-2.951 3.147c0.284 0.213 0.533 0.462 0.8 0.711 0.107 0.107 0.249 0.107 0.356 0l3.644-3.822c0.042-0.047 0.068-0.109 0.068-0.178s-0.026-0.131-0.068-0.178l0 0c-2.707-2.801-6.497-4.541-10.693-4.541-0.303 0-0.604 0.009-0.903 0.027l0.041-0.002c3.823 0.253 7.216 1.912 9.704 4.459l0.003 0.003z"></path>
<path fill="#4caf50" style="fill: var(--color7, #4caf50)" d="M26.738 26.88c-2.739 3.133-6.738 5.105-11.197 5.12h-0.003c-6.025-0.066-11.204-3.624-13.614-8.743l-0.039-0.093 4.747-3.413c1.374 3.686 4.84 6.274 8.918 6.329l0.007 0c2.524 0 4.836-1.031 6.56-2.72l4.622 3.52z"></path>
<path fill="#43a047" style="fill: var(--color8, #43a047)" d="M6.631 19.751l-1.404 1.013c1.603 3.167 4.833 5.3 8.561 5.3 0.297 0 0.591-0.014 0.881-0.040l-0.037 0.003c-3.694-0.43-6.724-2.884-7.978-6.209l-0.022-0.067zM15.556 32c4.462-0.015 8.461-1.987 11.185-5.103l0.015-0.017-1.138-0.871c-2.571 3.388-6.488 5.639-10.939 5.953l-0.048 0.003 0.924 0.036z"></path>
<path fill="#ffc107" style="fill: var(--color9, #ffc107)" d="M5.938 16c0 1.333 0.249 2.596 0.693 3.751l-4.747 3.413c-1.025-2.091-1.624-4.55-1.624-7.149 0-2.835 0.713-5.504 1.969-7.837l-0.043 0.088 4.622 3.52c-0.551 1.28-0.889 2.702-0.889 4.213z"></path>
<path fill="#ffb300" style="fill: var(--color10, #ffb300)" d="M5.227 20.764l1.404-1.013c-0.444-1.117-0.701-2.412-0.701-3.766 0-1.519 0.323-2.962 0.905-4.265l-0.027 0.066-1.333-1.013c-0.881 1.498-1.402 3.3-1.402 5.224 0 1.741 0.426 3.382 1.18 4.825l-0.027-0.058z"></path>
</symbol>
<symbol id="icon-hands_heart1" viewBox="0 0 29 32">
<path d="M28.686 17.829l-0.503-8.303c-0.028-0.543-0.258-1.027-0.617-1.383l-0-0c-0.303-0.306-0.723-0.496-1.187-0.496-0.043 0-0.085 0.002-0.127 0.005l0.006-0c-0.943 0.080-1.674 0.971-1.663 2.029l0.057 6.771-2.617 3.754c-0.288 0.435-0.775 0.718-1.329 0.718-0.147 0-0.29-0.020-0.425-0.058l0.011 0.003 2.851-4.143c0.206-0.303 0.328-0.678 0.328-1.081 0-0.51-0.197-0.974-0.518-1.321l0.001 0.001c-0.269-0.284-0.65-0.461-1.071-0.461-0.502 0-0.945 0.251-1.211 0.634l-0.003 0.005-4.309 5.806c-0.679 0.924-1.086 2.084-1.086 3.339 0 0.028 0 0.055 0.001 0.082l-0-0.004 0.069 7.703c0 0.309 0.229 0.554 0.497 0.554l7.171 0.011c0.137 0 0.274-0.069 0.366-0.183 0.097-0.114 0.143-0.269 0.131-0.429l-0.291-3.771 4.754-7.086c0.457-0.681 0.729-1.52 0.729-2.422 0-0.099-0.003-0.197-0.010-0.294l0.001 0.013zM27.171 19.863l-4.869 7.251c-0.074 0.114-0.114 0.246-0.103 0.383l0.263 3.383-6.126-0.011-0.057-7.154c-0-0.019-0-0.041-0-0.063 0-0.986 0.32-1.897 0.861-2.635l-0.009 0.013 4.303-5.806c0.099-0.145 0.264-0.24 0.45-0.24 0.156 0 0.296 0.066 0.395 0.171l0 0c0.223 0.229 0.251 0.617 0.069 0.886l-3.234 4.703c-0.086 0.12-0.114 0.28-0.097 0.434 0.021 0.154 0.101 0.287 0.216 0.376l0.001 0.001c1.16 0.857 2.737 0.571 3.589-0.657l2.726-3.909c0.069-0.103 0.109-0.229 0.109-0.354l-0.063-6.966c0-0.469 0.32-0.857 0.737-0.897 0.211-0.017 0.417 0.057 0.577 0.217 0.166 0.154 0.263 0.371 0.274 0.611l0.514 8.303c0.004 0.060 0.006 0.131 0.006 0.202 0 0.655-0.199 1.264-0.539 1.77l0.007-0.011zM8.354 14.503c-0.269-0.388-0.713-0.639-1.215-0.639-0.422 0-0.802 0.177-1.071 0.461l-0.001 0.001c-0.32 0.345-0.517 0.809-0.517 1.319 0 0.403 0.123 0.777 0.333 1.087l-0.004-0.007 2.846 4.143c-0.629 0.177-1.32-0.057-1.737-0.663l-2.623-3.749 0.057-6.771c0.017-1.057-0.72-1.949-1.657-2.029-0.038-0.003-0.082-0.005-0.127-0.005-0.465 0-0.885 0.19-1.187 0.496l-0 0c-0.357 0.356-0.585 0.841-0.611 1.378l-0 0.005-0.514 8.297c-0.057 0.971 0.2 1.931 0.72 2.709l4.76 7.080-0.291 3.771c-0.017 0.16 0.034 0.314 0.126 0.429 0.097 0.114 0.229 0.183 0.371 0.183l7.166-0.011c0.274 0 0.497-0.246 0.503-0.554l0.063-7.714c0-0.022 0-0.047 0-0.073 0-1.255-0.407-2.415-1.097-3.354l0.011 0.016-4.303-5.806zM12.68 30.869l-6.126 0.011 0.263-3.383c0.011-0.137-0.023-0.274-0.097-0.383l-4.874-7.257c-0.327-0.491-0.521-1.094-0.521-1.742 0-0.075 0.003-0.149 0.008-0.222l-0.001 0.010 0.509-8.303c0.011-0.24 0.109-0.457 0.269-0.611 0.135-0.135 0.321-0.219 0.527-0.219 0.020 0 0.039 0.001 0.058 0.002l-0.003-0c0.417 0.034 0.743 0.429 0.737 0.897l-0.063 6.971c0 0.126 0.034 0.246 0.103 0.343l2.731 3.914c0.451 0.693 1.223 1.145 2.1 1.145 0.558 0 1.074-0.183 1.49-0.493l-0.007 0.005c0.116-0.090 0.196-0.223 0.217-0.374l0-0.003c0.023-0.154-0.011-0.314-0.097-0.434l-3.229-4.703c-0.076-0.112-0.121-0.25-0.121-0.399 0-0.188 0.072-0.359 0.19-0.487l-0 0.001c0.099-0.105 0.24-0.171 0.396-0.171 0.187 0 0.351 0.094 0.449 0.238l0.001 0.002 4.297 5.806c0.536 0.728 0.857 1.643 0.857 2.632 0 0.019-0 0.038-0 0.056l0-0.003-0.069 7.154zM24.32 6.309c0-1.686-0.589-3.269-1.651-4.457-0.97-1.125-2.392-1.836-3.98-1.851l-0.003-0c-1.59 0.013-3.012 0.723-3.977 1.839l-0.006 0.007-0.194 0.217-0.189-0.217c-0.971-1.122-2.393-1.832-3.98-1.846h-0.002c-1.59 0.013-3.012 0.723-3.977 1.839l-0.006 0.007c-1.024 1.192-1.647 2.755-1.647 4.463s0.623 3.27 1.655 4.472l-0.008-0.009 7.8 8.743c0.097 0.109 0.229 0.166 0.354 0.166 0.131 0 0.257-0.057 0.354-0.171l7.806-8.737c1.026-1.167 1.652-2.707 1.652-4.393 0-0.022-0-0.045-0-0.067l0 0.003zM14.509 18.326l-7.446-8.343c-0.843-0.981-1.357-2.266-1.357-3.671s0.513-2.691 1.363-3.679l-0.006 0.007c0.798-0.924 1.966-1.509 3.272-1.52h0.002c1.234 0 2.4 0.543 3.274 1.52l0.543 0.611c0.097 0.103 0.223 0.166 0.354 0.166 0.137 0 0.263-0.057 0.354-0.171l0.549-0.606c0.798-0.924 1.966-1.509 3.272-1.52h0.002c1.234 0 2.4 0.543 3.274 1.52 0.845 0.96 1.36 2.228 1.36 3.616 0 0.019-0 0.037-0 0.056l0-0.003c0 0.016 0 0.034 0 0.053 0 1.388-0.515 2.656-1.366 3.622l0.005-0.006-7.446 8.343z"></path>
</symbol>
<symbol id="icon-invoice1" viewBox="0 0 32 32">
<path d="M30.68 0h-29.366c-0.446 0-0.811 0.371-0.811 0.817 0 0.457 0.366 0.823 0.817 0.823h1.771v29.52c0 0.303 0.16 0.583 0.429 0.726s0.589 0.126 0.84-0.040l3.554-2.371 3.571 2.377c0.274 0.183 0.634 0.183 0.914 0l3.554-2.371 3.571 2.377c0.269 0.183 0.629 0.183 0.903 0l3.56-2.371 3.571 2.377c0.128 0.085 0.285 0.135 0.454 0.135 0.141 0 0.274-0.035 0.39-0.098l-0.004 0.002c0.263-0.143 0.429-0.423 0.429-0.72l-0.011-29.526h1.863c0.451 0 0.817-0.366 0.817-0.817s-0.366-0.84-0.811-0.84zM27.194 29.629l-2.749-1.829c-0.128-0.086-0.285-0.138-0.454-0.138s-0.327 0.052-0.457 0.14l0.003-0.002-3.554 2.377-3.571-2.377c-0.128-0.088-0.287-0.14-0.457-0.14s-0.329 0.052-0.46 0.142l0.003-0.002-3.554 2.371-3.571-2.371c-0.127-0.085-0.283-0.136-0.451-0.136s-0.324 0.051-0.454 0.138l0.003-0.002-2.743 1.829v-28h22.463l0.006 28z"></path>
<path d="M8.497 13.086h8.583c0.424-0.037 0.754-0.39 0.754-0.82s-0.33-0.784-0.751-0.82l-0.003-0h-8.583c-0.453 0-0.82 0.367-0.82 0.82s0.367 0.82 0.82 0.82v0zM8.497 15.926h6.429c0.457 0 0.823-0.366 0.823-0.817s-0.371-0.817-0.823-0.817h-6.429c-0.453 0-0.82 0.367-0.82 0.82s0.367 0.82 0.82 0.82v0zM21.371 13.086h2.137c0.424-0.037 0.754-0.39 0.754-0.82s-0.33-0.784-0.751-0.82l-0.003-0h-2.137c-0.453 0-0.82 0.367-0.82 0.82s0.367 0.82 0.82 0.82v0zM21.371 15.926h2.137c0.457 0 0.823-0.366 0.823-0.817s-0.371-0.817-0.823-0.817h-2.137c-0.453 0-0.82 0.367-0.82 0.82s0.367 0.82 0.82 0.82v0zM8.497 6.509h8.583c0.424-0.037 0.754-0.39 0.754-0.82s-0.33-0.784-0.751-0.82l-0.003-0h-8.583c-0.453 0-0.82 0.367-0.82 0.82s0.367 0.82 0.82 0.82v0zM8.497 9.349h6.429c0.424-0.037 0.754-0.39 0.754-0.82s-0.33-0.784-0.751-0.82l-0.003-0h-6.429c-0.453 0-0.82 0.367-0.82 0.82s0.367 0.82 0.82 0.82v0zM21.371 6.509h2.137c0.424-0.037 0.754-0.39 0.754-0.82s-0.33-0.784-0.751-0.82l-0.003-0h-2.137c-0.453 0-0.82 0.367-0.82 0.82s0.367 0.82 0.82 0.82v0zM21.371 9.349h2.137c0.424-0.037 0.754-0.39 0.754-0.82s-0.33-0.784-0.751-0.82l-0.003-0h-2.137c-0.453 0-0.82 0.367-0.82 0.82s0.367 0.82 0.82 0.82v0zM8.497 19.737h8.583c0.451 0 0.817-0.366 0.817-0.817 0-0.457-0.366-0.823-0.817-0.823h-8.583c-0.451 0-0.817 0.371-0.817 0.823s0.36 0.817 0.817 0.817zM8.497 22.577h6.429c0.457 0 0.823-0.366 0.823-0.817 0-0.457-0.371-0.823-0.823-0.823h-6.429c-0.451 0-0.817 0.371-0.817 0.823s0.36 0.817 0.817 0.817zM21.371 19.737h2.137c0.457 0 0.823-0.366 0.823-0.817 0-0.457-0.371-0.823-0.823-0.823h-2.137c-0.451 0-0.817 0.371-0.817 0.823s0.36 0.817 0.817 0.817zM21.371 22.577h2.137c0.457 0 0.823-0.366 0.823-0.817 0-0.457-0.371-0.823-0.823-0.823h-2.137c-0.451 0-0.817 0.371-0.817 0.823s0.36 0.817 0.817 0.817z"></path>
</symbol>
<symbol id="icon-kuvshin1" viewBox="0 0 32 32">
<path d="M31.023 13.514h-1.909c-0.354 0-0.669 0.183-0.851 0.457-1.457-0.154-1.651-0.389-1.806-0.577-0.213-0.256-0.462-0.472-0.741-0.644l-0.013-0.007-4.383-2.663c-0.763-1.705-1.964-3.098-3.461-4.075l-0.036-0.022c-0.42-0.276-0.693-0.746-0.693-1.279 0-0.321 0.099-0.618 0.268-0.864l-0.003 0.005 1.091-1.623c0.157-0.225 0.251-0.504 0.251-0.806 0-0.783-0.634-1.417-1.417-1.417-0.006 0-0.012 0-0.018 0h-5.176c-0.787 0.003-1.424 0.641-1.424 1.429 0 0.296 0.090 0.571 0.244 0.799l-0.003-0.005 1.086 1.623c0.164 0.24 0.262 0.537 0.262 0.857 0 0.533-0.272 1.002-0.685 1.277l-0.006 0.004c-1.64 1.080-5.309 4.251-3.92 10.457 0.771 3.457 1.371 5.891 1.731 7.063h-7.731c-0.634 0-1.194 0.457-1.326 1.080l-0.263 1.269c-0.019 0.084-0.029 0.181-0.029 0.28 0 0.745 0.604 1.349 1.349 1.349 0.002 0 0.005 0 0.007-0h26.594c0.002 0 0.004 0 0.007 0 0.745 0 1.349-0.604 1.349-1.349 0-0.099-0.011-0.196-0.031-0.289l0.002 0.009-0.269-1.269c-0.133-0.618-0.673-1.075-1.319-1.080h-7.732c0.109-0.343 0.234-0.817 0.389-1.394h0.509c1.491 0 2.971-0.223 4.4-0.663l2.914-0.366c0.171 0.309 0.503 0.52 0.886 0.52h1.909c0.56 0 1.011-0.457 1.011-1.011v-6.057c0-0.56-0.457-1.017-1.011-1.017zM11.651 1.326c0.047-0.223 0.241-0.388 0.474-0.389h5.177c0.268 0 0.485 0.218 0.485 0.486 0 0.102-0.032 0.198-0.086 0.276l0.001-0.002-0.531 0.8h-4.914l-0.537-0.8c-0.053-0.077-0.084-0.171-0.084-0.273 0-0.035 0.004-0.069 0.011-0.101l-0.001 0.003zM12.114 6.766c0.677-0.445 1.117-1.201 1.117-2.060 0-0.468-0.131-0.905-0.357-1.277l0.006 0.011h3.663c-0.219 0.361-0.349 0.798-0.349 1.264 0 0.859 0.44 1.615 1.106 2.056l0.009 0.006c0.286 0.189 0.606 0.423 0.926 0.697h-7.034c0.326-0.286 0.646-0.514 0.92-0.697zM28.154 24.771l0.263 1.269c0.034 0.171-0.040 0.291-0.086 0.349-0.076 0.094-0.191 0.154-0.32 0.154h-26.594c-0.001 0-0.003 0-0.005 0-0.13 0-0.245-0.060-0.321-0.154l-0.001-0.001c-0.056-0.070-0.089-0.159-0.089-0.256 0-0.031 0.003-0.061 0.010-0.090l-0 0.003 0.263-1.274c0.043-0.187 0.208-0.325 0.406-0.326h26.069c0.194 0 0.366 0.137 0.4 0.326zM19.029 23.503h-8.634c-0.194-0.571-0.686-2.286-1.8-7.274-0.469-2.103-0.36-4.006 0.331-5.674h1.726c0.259 0 0.469-0.21 0.469-0.469s-0.21-0.469-0.469-0.469v0h-1.257c0.263-0.457 0.554-0.857 0.857-1.217h8.926c0.303 0.36 0.6 0.76 0.857 1.217h-7.497c-0.259 0-0.469 0.21-0.469 0.469s0.21 0.469 0.469 0.469v0h6.206c-0.072 0.169-0.114 0.365-0.114 0.572 0 0.541 0.288 1.014 0.719 1.276l0.007 0.004 0.806 0.491h-5.211c-0.005-0-0.011-0-0.016-0-0.833 0-1.509 0.675-1.509 1.509 0 0.202 0.040 0.394 0.111 0.57l-0.004-0.010h-0.48c-0.004-0-0.008-0-0.013-0-0.824 0-1.491 0.668-1.491 1.491 0 0.024 0.001 0.048 0.002 0.072l-0-0.003c0.024 0.642 0.448 1.178 1.029 1.368l0.011 0.003c-0.092 0.189-0.146 0.411-0.146 0.646 0 0.83 0.673 1.503 1.503 1.503 0.001 0 0.002 0 0.003 0h0.708c-0.070 0.167-0.111 0.362-0.111 0.566 0 0.83 0.673 1.503 1.503 1.503 0.001 0 0.001 0 0.002 0h3.377c-0.194 0.743-0.32 1.16-0.4 1.389zM25.143 20.52l-0.074 0.017c-1.349 0.423-2.749 0.634-4.16 0.634h-4.869c-0.279-0.041-0.491-0.279-0.491-0.566s0.212-0.525 0.488-0.565l0.003-0h3.074c0.259 0 0.469-0.21 0.469-0.469s-0.21-0.469-0.469-0.469v0h-5.171c-0.279-0.041-0.491-0.279-0.491-0.566s0.212-0.525 0.488-0.565l0.003-0h5.177c0.259 0 0.469-0.21 0.469-0.469s-0.21-0.469-0.469-0.469v0h-6.046c-0.314 0-0.577-0.246-0.589-0.543-0-0.007-0-0.015-0-0.023 0-0.312 0.253-0.566 0.566-0.566 0.002 0 0.004 0 0.007 0h6.062c0.259 0 0.469-0.21 0.469-0.469s-0.21-0.469-0.469-0.469v0h-4.194c-0.002 0-0.004 0-0.006 0-0.309 0-0.56-0.251-0.56-0.56 0-0.010 0-0.020 0.001-0.030l-0 0.001c0.011-0.303 0.274-0.543 0.594-0.543h6.457c0.269 0 0.497-0.171 0.571-0.429 0.069-0.257-0.040-0.526-0.263-0.663l-1.88-1.143c-0.163-0.1-0.271-0.277-0.271-0.479 0-0.108 0.031-0.209 0.084-0.294l-0.001 0.002c0.102-0.165 0.282-0.273 0.487-0.273 0.107 0 0.207 0.029 0.292 0.080l-0.003-0.001 4.783 2.909c0.2 0.114 0.377 0.269 0.52 0.451 0.383 0.457 0.88 0.743 2.366 0.903v5.257l-2.943 0.366zM31.091 20.589c0 0.040-0.034 0.074-0.074 0.074h-1.909c-0 0-0 0-0 0-0.042 0-0.077-0.033-0.080-0.074l-0-0v-6.057c0-0.046 0.034-0.080 0.080-0.080h1.909c0.040 0 0.074 0.034 0.074 0.080v6.057zM22.474 30.486l-2.44-1.96c-0.074-0.052-0.167-0.083-0.266-0.083-0.259 0-0.469 0.21-0.469 0.469 0 0.134 0.056 0.255 0.146 0.34l0 0 2.251 1.811h-13.966l2.251-1.811c0.107-0.087 0.175-0.218 0.175-0.366 0-0.259-0.21-0.469-0.469-0.469-0.112 0-0.215 0.039-0.295 0.104l0.001-0.001-2.446 1.966c-0.286 0.229-0.389 0.6-0.269 0.949 0.12 0.343 0.44 0.566 0.8 0.566h14.463c0.366 0 0.686-0.223 0.8-0.571 0.126-0.343 0.017-0.714-0.269-0.943z"></path>
</symbol>
<symbol id="icon-left_orange" viewBox="0 0 48 32">
<path fill="#ff751d" style="fill: var(--color2, #ff751d)" d="M48 13.333h-37.787l9.547-9.573-3.76-3.76-16 16 16 16 3.76-3.76-9.547-9.573h37.787v-5.333z"></path>
</symbol>
<symbol id="icon-logo_kapusta" viewBox="0 0 93 32">
<path fill="#fb7c2f" style="fill: var(--color11, #fb7c2f)" d="M14.452 5.161h17.548c4.561 0 8.258 3.697 8.258 8.258v10.323c0 4.561-3.697 8.258-8.258 8.258h-17.548c-4.561 0-8.258-3.697-8.258-8.258v-10.323c0-4.561 3.697-8.258 8.258-8.258z"></path>
<path fill="#fb7c2f" style="fill: var(--color11, #fb7c2f)" opacity="0.2" d="M8.258 0h17.548c4.561 0 8.258 3.697 8.258 8.258v10.323c0 4.561-3.697 8.258-8.258 8.258h-17.548c-4.561 0-8.258-3.697-8.258-8.258v-10.323c0-4.561 3.697-8.258 8.258-8.258z"></path>
<path fill="#000" style="fill: var(--color12, #000)" d="M23.876 21.234l1.332-1.455 2.859 4.996h3.83l-4.542-7.484 4.542-5.935h-3.995l-2.89 4.212-1.135 1.703v-5.915h-3.231v13.419h3.231v-3.541zM38.926 23.876c0.093 0.392 0.186 0.692 0.299 0.898h3.097v-0.155c-0.264-0.557-0.418-1.209-0.418-1.898 0-0.073 0.002-0.146 0.005-0.218l-0 0.010v-4.418c0.001-0.027 0.001-0.058 0.001-0.089 0-0.983-0.439-1.864-1.132-2.457l-0.004-0.004c-0.756-0.584-1.718-0.936-2.762-0.936-0.089 0-0.177 0.003-0.265 0.008l0.012-0.001c-1.27 0-2.323 0.31-3.148 0.908-0.74 0.509-1.218 1.35-1.218 2.304 0 0.014 0 0.028 0 0.042l-0-0.002h3.097c0-0.723 0.372-1.084 1.115-1.084 0.785 0 1.187 0.454 1.187 1.373v0.516h-0.96c-1.528 0-2.684 0.289-3.479 0.836-0.736 0.509-1.212 1.349-1.212 2.299 0 0.055 0.002 0.11 0.005 0.165l-0-0.008c0 0.857 0.33 1.569 0.991 2.147 0.661 0.557 1.455 0.846 2.395 0.846 1.032 0 1.827-0.361 2.395-1.084zM38.235 22.493c-0.248 0.165-0.568 0.248-0.96 0.248-0.289 0-0.537-0.083-0.723-0.258-0.178-0.166-0.289-0.403-0.289-0.665 0-0.009 0-0.019 0-0.028l-0 0.001c0-0.97 0.547-1.445 1.621-1.445h0.908v1.59c-0.103 0.206-0.299 0.392-0.557 0.557zM52.893 19.861c0 1.548-0.351 2.787-1.053 3.716-0.615 0.843-1.599 1.385-2.71 1.385-0.038 0-0.076-0.001-0.113-0.002l0.005 0c-0.919 0-1.672-0.341-2.261-1.012v4.655h-3.097v-13.801h2.89l0.103 0.929c0.53-0.681 1.35-1.116 2.271-1.116 0.025 0 0.051 0 0.076 0.001l-0.004-0c1.228 0 2.188 0.454 2.87 1.363s1.022 2.147 1.022 3.737v0.145zM49.786 19.665c0-1.765-0.516-2.653-1.548-2.653-0.743 0-1.239 0.268-1.476 0.795v3.923c0.268 0.557 0.764 0.826 1.497 0.826 0.981 0 1.497-0.846 1.528-2.56v-0.33zM58.581 24.96c0.033 0.001 0.071 0.002 0.11 0.002 1.040 0 1.963-0.496 2.548-1.264l0.006-0.008 0.072 1.084h2.921v-9.972h-3.128v6.988c-0.31 0.516-0.805 0.774-1.517 0.774-0.826 0-1.239-0.434-1.239-1.29v-6.472h-3.117v6.462c0 1.187 0.279 2.106 0.836 2.746 0.568 0.63 1.404 0.95 2.498 0.95zM71.174 21.966c0-0.258-0.134-0.475-0.413-0.63-0.456-0.218-0.986-0.39-1.541-0.49l-0.038-0.006c-0.724-0.15-1.366-0.386-1.96-0.7l0.040 0.019c-0.495-0.279-0.888-0.619-1.146-1.022-0.247-0.404-0.393-0.893-0.393-1.416 0-0.907 0.44-1.712 1.119-2.212l0.008-0.005c0.662-0.501 1.487-0.82 2.384-0.867l0.011-0v-2.271h1.486v2.302c0.898 0.103 1.652 0.392 2.261 0.846 0.728 0.51 1.198 1.345 1.198 2.29 0 0.019-0 0.038-0.001 0.056l0-0.003h-3.117c0-0.795-0.413-1.197-1.259-1.197-0.33 0-0.599 0.103-0.826 0.279-0.201 0.152-0.33 0.391-0.33 0.661 0 0.004 0 0.007 0 0.011v-0.001c0 0.279 0.134 0.506 0.413 0.671 0.268 0.175 0.692 0.31 1.28 0.423 0.599 0.114 1.125 0.248 1.569 0.403 1.497 0.516 2.25 1.445 2.25 2.766 0 0.919-0.413 1.652-1.218 2.23-0.599 0.423-1.342 0.692-2.219 0.805v2.271h-1.486v-2.25c-0.619-0.052-1.197-0.196-1.714-0.434-0.638-0.279-1.168-0.706-1.562-1.239l-0.007-0.010c-0.345-0.461-0.553-1.042-0.557-1.671v-0.001h2.901c0.010 0.465 0.165 0.795 0.465 1.012 0.289 0.206 0.671 0.31 1.135 0.31 0.413 0 0.733-0.083 0.95-0.248 0.19-0.153 0.31-0.385 0.31-0.645 0-0.013-0-0.025-0.001-0.038l0 0.002zM80.279 14.803v-2.477h-3.097v2.477h-1.28v2.157h1.27v4.955c0 1.022 0.258 1.786 0.764 2.281 0.516 0.516 1.301 0.764 2.374 0.764 0.609 0 1.187-0.093 1.755-0.268v-2.219c-0.217 0.031-0.475 0.052-0.785 0.052-0.392 0-0.661-0.072-0.795-0.217-0.145-0.155-0.206-0.413-0.206-0.785v-4.563h1.641v-2.168h-1.652zM89.796 24.774c-0.103-0.206-0.206-0.506-0.289-0.898-0.534 0.665-1.347 1.088-2.259 1.088-0.051 0-0.102-0.001-0.153-0.004l0.007 0c-0.929 0-1.734-0.289-2.395-0.846-0.601-0.503-0.981-1.254-0.981-2.094 0-0.019 0-0.037 0.001-0.056l-0 0.003c-0.003-0.049-0.005-0.106-0.005-0.164 0-0.947 0.472-1.783 1.193-2.287l0.009-0.006c0.795-0.547 1.961-0.826 3.479-0.826h0.96v-0.526c0-0.919-0.392-1.373-1.187-1.373-0.733 0-1.105 0.361-1.105 1.084h-3.097c0-0.96 0.403-1.755 1.218-2.343 0.826-0.609 1.868-0.908 3.138-0.908s2.271 0.31 3.014 0.929c0.743 0.619 1.115 1.476 1.135 2.55v4.418c0.010 0.919 0.155 1.621 0.423 2.106v0.155h-3.097zM87.855 22.741c0.382 0 0.702-0.083 0.96-0.248s0.434-0.351 0.547-0.557v-1.6h-0.898c-1.084 0-1.621 0.485-1.621 1.455 0 0.289 0.093 0.516 0.279 0.692 0.196 0.175 0.434 0.258 0.723 0.258z"></path>
</symbol>
<symbol id="icon-logout1" viewBox="0 0 32 32">
<path fill="#cbccd0" style="fill: var(--color13, #cbccd0)" d="M20 28h-16v-24h16v2h4v-6h-24v32h24v-6h-4v2z"></path>
<path fill="#cbccd0" style="fill: var(--color13, #cbccd0)" d="M24.6 8.6l-2.84 2.8 2.6 2.6h-10.36v4h10.34l-2.6 2.6 2.84 2.8 7.42-7.4-7.4-7.4z"></path>
</symbol>
<symbol id="icon-salary1" viewBox="0 0 31 32">
<path fill="#ff751d" style="fill: var(--color2, #ff751d)" d="M14.88 12.888l-0.32-0.121v-1.975c0.359 0.143 0.607 0.342 0.618 0.353 0.254 0.215 0.634 0.177 0.844-0.083 0.215-0.259 0.177-0.646-0.077-0.861-0.388-0.31-0.85-0.548-1.353-0.684l-0.026-0.006v-0.298c0-0.002 0-0.004 0-0.006 0-0.335-0.272-0.607-0.607-0.607 0 0-0 0-0 0v0c-0.331 0-0.607 0.276-0.607 0.607v0.276c-0.799 0.178-1.409 0.823-1.532 1.628l-0.001 0.011c-0.138 0.756 0.11 1.517 0.623 1.931 0.237 0.182 0.53 0.359 0.916 0.535v2.593c-0.308-0.054-0.581-0.178-0.81-0.356l0.004 0.003c-0.276-0.182-0.657-0.105-0.839 0.177-0.182 0.287-0.105 0.662 0.177 0.85 0.574 0.381 0.977 0.513 1.468 0.552v0.386c0 0.337 0.27 0.607 0.601 0.607s0.607-0.27 0.607-0.607v-0.441c0.927-0.262 1.624-1.026 1.786-1.972l0.002-0.015c0.182-1.103-0.408-2.097-1.473-2.483zM13.357 12.204l-0.166-0.116c-0.166-0.132-0.237-0.436-0.182-0.739 0.017-0.105 0.094-0.408 0.348-0.568v1.423zM15.161 15.167c-0.064 0.377-0.287 0.692-0.596 0.88l-0.006 0.003v-1.981c0.657 0.276 0.64 0.85 0.601 1.092z"></path>
<path fill="#ff751d" style="fill: var(--color2, #ff751d)" d="M28.574 13.286l-3.834-2.571v-9.903c0 0 0-0 0-0 0-0.333-0.269-0.604-0.601-0.607h-14.483c-0.331 0-0.607 0.276-0.607 0.607v2.334h-2.29c-0.331 0-0.607 0.276-0.607 0.612v6.963l-3.829 2.571c-0.166 0.11-0.276 0.303-0.276 0.508v17.142c0 0.342 0.276 0.612 0.607 0.612h10.080c0.331 0 0.607-0.276 0.607-0.607 0-0.003 0-0.007 0-0.011 0-0.335-0.272-0.607-0.607-0.607-0 0-0 0-0 0h-8.623l8.8-8.932 2.207 1.479c0.093 0.063 0.208 0.1 0.331 0.1s0.238-0.038 0.333-0.102l-0.002 0.001 2.207-1.479 8.8 8.927h-8.623c-0.331 0-0.607 0.276-0.607 0.612 0 0.342 0.276 0.612 0.607 0.612h10.086c0.331 0 0.607-0.276 0.607-0.607v-17.148c0-0.204-0.11-0.397-0.276-0.508zM27.145 13.793l-2.406 1.611v-3.222l2.406 1.611zM10.262 1.423h13.274v14.786l-1.694 1.137v-13.594c0 0 0-0 0-0 0-0.333-0.269-0.604-0.601-0.607h-10.98v-1.727zM6.157 12.182v3.222l-2.406-1.611 2.406-1.611zM3.255 29.462v-14.532l8.623 5.782-8.623 8.745zM15.448 21.633l-8.088-5.418v-11.857h13.28v13.793l-5.192 3.476zM27.641 14.93v14.532l-8.634-8.75 8.634-5.782z"></path>
<path fill="#ff751d" style="fill: var(--color2, #ff751d)" d="M15.448 30.323c0 0-0 0-0 0-0.335 0-0.607 0.272-0.607 0.607 0 0.002 0 0.004 0 0.006v-0c0 0.166 0.066 0.32 0.182 0.436 0.11 0.11 0.265 0.177 0.425 0.177 0.335 0 0.607-0.272 0.607-0.607v0c0-0.166-0.066-0.32-0.182-0.441-0.109-0.108-0.259-0.176-0.425-0.177h-0z"></path>
</symbol>
<symbol id="icon-salary2" viewBox="0 0 31 32">
<path d="M11.266 19.156c0-0.002 0-0.004 0-0.006 0-0.251-0.202-0.455-0.452-0.458h-4.387c-0.251 0.003-0.452 0.207-0.452 0.458 0 0.002 0 0.004 0 0.006v-0 2.968c0 0.254 0.199 0.458 0.452 0.458h4.386c0.254 0 0.452-0.204 0.452-0.458v-2.968zM10.361 21.661h-3.481v-2.047h3.481v2.047zM22.030 21.594h2.439c0.254 0 0.452-0.21 0.452-0.463 0 0 0-0 0-0 0-0.251-0.202-0.455-0.452-0.458h-2.439c-0.251 0.003-0.452 0.207-0.452 0.458 0 0 0 0 0 0v0c0 0.254 0.204 0.463 0.452 0.463zM22.030 19.614h2.439c0.254 0 0.452-0.204 0.452-0.458 0-0.002 0-0.004 0-0.006 0-0.251-0.202-0.455-0.452-0.458h-2.439c-0.251 0.003-0.452 0.207-0.452 0.458 0 0.002 0 0.004 0 0.006v-0c0 0.254 0.204 0.458 0.452 0.458z"></path>
<path d="M26.422 24.11c-0.251 0.003-0.452 0.207-0.452 0.458 0 0 0 0 0 0v0 5.903c0 0.088-0.072 0.16-0.16 0.16h-20.723c-0.088 0-0.16-0.072-0.16-0.16v0-10.163c0 0 0-0 0-0 0-0.251-0.202-0.455-0.452-0.458h-0c-0.251 0.003-0.452 0.207-0.452 0.458 0 0 0 0 0 0v0 10.163c0 0.596 0.48 1.076 1.065 1.076h20.723c0.585 0 1.065-0.48 1.065-1.076v-5.903c0-0.002 0-0.004 0-0.006 0-0.251-0.202-0.455-0.452-0.458h-0zM25.81 15.785h-7.47v-2.323c2.339-1.103 3.961-3.514 3.961-6.301 0-3.84-3.073-6.957-6.852-6.957-1.313 0-2.588 0.375-3.686 1.087-1.069 0.701-1.915 1.659-2.465 2.789l-0.018 0.041c-0.11 0.232-0.017 0.508 0.21 0.618 0.221 0.11 0.497 0.011 0.607-0.215 0.964-2.027 2.995-3.404 5.348-3.404 0.001 0 0.002 0 0.004 0h-0c3.277 0 5.948 2.703 5.948 6.036 0 3.327-2.67 6.030-5.948 6.030-3.291-0.028-5.949-2.702-5.949-5.997 0-0.259 0.016-0.514 0.048-0.764l-0.003 0.030c0.002-0.017 0.004-0.038 0.004-0.058 0-0.235-0.177-0.428-0.404-0.455l-0.002-0c-0.014-0.002-0.030-0.002-0.047-0.002-0.233 0-0.425 0.176-0.45 0.403l-0 0.002c-0.031 0.247-0.049 0.533-0.049 0.823 0 2.757 1.601 5.14 3.925 6.27l0.041 0.018v2.328h-7.481c-0.585 0-1.065 0.486-1.065 1.081v1.291c0 0.254 0.204 0.458 0.452 0.458 0.254 0 0.452-0.204 0.452-0.458v-1.291c0-0.088 0.072-0.166 0.16-0.166h5.887l4.138 4.8c0.083 0.094 0.204 0.153 0.339 0.153s0.256-0.059 0.339-0.153l0-0 4.132-4.8h5.887c0.088 0 0.16 0.077 0.16 0.166v5.545c0 0.254 0.199 0.458 0.452 0.458 0.248 0 0.452-0.204 0.452-0.458v-5.545c0-0.596-0.48-1.081-1.065-1.081zM15.448 20.497l-3.272-3.79h0.833c0.248 0 0.452-0.204 0.452-0.458v-2.439c0.594 0.19 1.277 0.299 1.986 0.299s1.392-0.11 2.034-0.312l-0.048 0.013v2.439c0 0.254 0.204 0.458 0.452 0.458h0.828l-3.266 3.79z"></path>
<path d="M6.428 27.095h1.214c0.254 0 0.458-0.204 0.458-0.458 0 0 0-0 0-0 0-0.251-0.202-0.455-0.452-0.458h-1.22c-0.251 0.003-0.452 0.207-0.452 0.458 0 0 0 0 0 0v0c0 0.254 0.199 0.458 0.452 0.458zM10.814 26.179h-1.214c-0.253 0-0.458 0.205-0.458 0.458v0c0 0.254 0.204 0.458 0.452 0.458h1.219c0.254 0 0.452-0.204 0.452-0.458 0 0 0-0 0-0 0-0.251-0.202-0.455-0.452-0.458h-0zM13.986 27.095c0.248 0 0.452-0.204 0.452-0.458 0 0 0-0 0-0 0-0.251-0.202-0.455-0.452-0.458h-1.22c-0.251 0.003-0.452 0.207-0.452 0.458 0 0 0 0 0 0v0c0 0.254 0.204 0.458 0.452 0.458h1.214zM17.159 27.095c0.248 0 0.447-0.204 0.447-0.458 0 0 0-0 0-0 0-0.251-0.202-0.455-0.452-0.458h-1.214c-0.253 0-0.458 0.205-0.458 0.458v0c0 0.254 0.204 0.458 0.452 0.458h1.219zM6.428 29.572h4.877c0.248 0 0.452-0.21 0.452-0.463 0 0 0-0 0-0 0-0.251-0.202-0.455-0.452-0.458h-4.878c-0.251 0.003-0.452 0.207-0.452 0.458 0 0 0 0 0 0v0c0 0.254 0.199 0.463 0.452 0.463zM19.145 27.873c0 0.938 0.745 1.699 1.666 1.699 0.483-0.001 0.916-0.209 1.218-0.539l0.001-0.001c0.303 0.332 0.737 0.539 1.219 0.541h0c0.925-0.009 1.672-0.762 1.672-1.688 0-0.004 0-0.008-0-0.012v0.001c0-0.938-0.75-1.694-1.672-1.694-0.48 0.001-0.911 0.207-1.213 0.534l-0.001 0.001c-0.304-0.329-0.737-0.535-1.219-0.535-0.002 0-0.004 0-0.006 0h0c-0.925 0.009-1.672 0.762-1.672 1.688 0 0.002 0 0.004 0 0.006v-0zM23.25 27.101c0.425 0 0.772 0.342 0.772 0.772 0 0.002 0 0.004 0 0.006 0 0.427-0.346 0.772-0.772 0.772 0 0 0 0-0 0v0c-0.424-0.003-0.767-0.348-0.767-0.772 0 0 0 0 0-0v0c0-0.436 0.348-0.783 0.772-0.783zM21.578 27.873c0 0.002 0 0.004 0 0.006 0 0.425-0.343 0.769-0.767 0.772h-0c-0.424-0.003-0.767-0.348-0.767-0.772 0 0 0 0 0-0v0c0-0.436 0.348-0.783 0.772-0.783 0.419 0 0.761 0.348 0.761 0.778zM13.948 9.556c-0.069-0.046-0.155-0.074-0.247-0.074-0.158 0-0.296 0.082-0.376 0.205l-0.001 0.002c-0.138 0.215-0.077 0.497 0.127 0.64 0.59 0.386 0.988 0.502 1.506 0.53v0.508c0 0.254 0.199 0.458 0.452 0.458 0.248 0 0.452-0.204 0.452-0.458v-0.541c0.912-0.202 1.609-0.935 1.753-1.852l0.002-0.013c0.023-0.113 0.036-0.243 0.036-0.375 0-0.884-0.576-1.634-1.373-1.894l-0.014-0.004c-0.267-0.095-0.401-0.147-0.533-0.201l0.13 0.047v-2.201c0.342 0.083 0.552 0.259 0.568 0.276 0.182 0.166 0.469 0.154 0.634-0.028 0.075-0.082 0.12-0.191 0.12-0.312 0-0.134-0.057-0.255-0.148-0.339l-0-0c-0.321-0.273-0.722-0.462-1.162-0.528l-0.013-0.002v-0.452c0-0.002 0-0.004 0-0.006 0-0.251-0.202-0.455-0.452-0.458h-0c-0.251 0.003-0.452 0.207-0.452 0.458 0 0.002 0 0.004 0 0.006v-0 0.486l-0.215 0.055c-0.661 0.22-1.151 0.78-1.267 1.468l-0.002 0.011c-0.026 0.111-0.041 0.239-0.041 0.37 0 0.503 0.223 0.955 0.575 1.261l0.002 0.002c0.237 0.193 0.535 0.364 0.949 0.552v2.792c-0.359-0.028-0.607-0.116-1.010-0.386zM14.566 5.876c-0.182-0.143-0.259-0.43-0.204-0.739 0.055-0.281 0.237-0.618 0.596-0.75v1.743c-0.147-0.081-0.274-0.165-0.392-0.258l0.006 0.004zM15.967 7.548c0.454 0.137 0.779 0.552 0.779 1.042 0 0.078-0.008 0.155-0.024 0.228l0.001-0.007c-0.066 0.425-0.364 0.883-0.861 1.059v-2.356l0.105 0.033z"></path>
</symbol>
<symbol id="icon-sofa1" viewBox="0 0 32 32">
<path d="M30.411 11.954h-0.629v-2.366c-0.003-1.399-1.138-2.531-2.537-2.531 0 0 0 0 0 0h-9.189c-0.851 0-1.6 0.423-2.063 1.069-0.464-0.649-1.214-1.067-2.063-1.069h-5.772c-0.259 0-0.469 0.21-0.469 0.469s0.21 0.469 0.469 0.469v0h5.771c0.881 0.003 1.594 0.718 1.594 1.6 0 0 0 0 0 0v0 4.686l-0.029-0.029c-0.541-0.503-1.268-0.813-2.068-0.817h-7.806c-0.064-0.827-0.746-1.476-1.582-1.486h-0.881v-2.36c0-0.884 0.716-1.6 1.6-1.6v0h1.526c0.016 0.002 0.033 0.003 0.052 0.003 0.259 0 0.469-0.21 0.469-0.469s-0.21-0.469-0.469-0.469c-0.018 0-0.036 0.001-0.054 0.003l0.002-0h-1.531c-1.397 0.003-2.528 1.135-2.531 2.531v2.366h-0.634c0 0 0 0 0 0-0.875 0-1.585 0.708-1.589 1.583v4.897c0 1.817 1.486 3.303 3.303 3.303h0.234l-0.514 1.377c-0.050 0.136-0.078 0.293-0.078 0.457 0 0.751 0.603 1.361 1.352 1.371h0.755c0.417 0 0.823-0.2 1.080-0.537l2.017-2.669h15.703l2.017 2.669c0.257 0.337 0.663 0.537 1.086 0.537h0.749c0.749-0.011 1.353-0.62 1.353-1.371 0-0.164-0.029-0.321-0.081-0.467l0.003 0.010-0.514-1.377h0.234c1.823 0 3.303-1.486 3.303-3.303v-4.897c-0.003-0.875-0.713-1.583-1.589-1.583 0 0 0 0 0 0v0zM16.469 9.589c0-0.884 0.716-1.6 1.6-1.6h9.177c0.884 0 1.6 0.716 1.6 1.6v0 2.366h-0.886c-0.003 0-0.005-0-0.008-0-0.839 0-1.525 0.655-1.574 1.481l-0 0.004-7.811-0.006c-0.771 0-1.543 0.309-2.097 0.846v-4.686zM5.629 14.371h7.8c1.157 0.003 2.094 0.94 2.097 2.097v0.675h-9.897v-2.766zM5.383 23.84c-0.076 0.103-0.196 0.169-0.331 0.171h-0.755c-0.233-0.001-0.421-0.19-0.421-0.423 0-0.053 0.010-0.104 0.028-0.151l-0.001 0.003 0.634-1.703h2.44l-1.6 2.103zM27.703 24.011h-0.754c-0.136-0.002-0.256-0.069-0.331-0.17l-0.001-0.001-1.594-2.103h2.44l0.629 1.709c0.015 0.041 0.023 0.088 0.023 0.137 0 0.23-0.183 0.416-0.411 0.423h-0.001zM28.697 20.8h-25.394c-1.307 0-2.366-1.059-2.366-2.366v0-4.897c0-0.354 0.291-0.646 0.651-0.646h2.457c0.354 0 0.646 0.286 0.646 0.646v4.069c0 0.257 0.211 0.469 0.469 0.469h17.217c0.259 0 0.469-0.21 0.469-0.469s-0.21-0.469-0.469-0.469v0h-5.909v-0.669c0.003-1.157 0.94-2.094 2.097-2.097h7.806v2.766h-2.12c-0.259 0-0.469 0.21-0.469 0.469s0.21 0.469 0.469 0.469v0h2.589c0.257 0 0.469-0.211 0.469-0.469v-4.069c0-0.354 0.291-0.646 0.651-0.646h2.457c0.354 0 0.646 0.286 0.646 0.646v4.897c0 1.307-1.059 2.366-2.366 2.366v0z"></path>
</symbol>
<symbol id="icon-tools1" viewBox="0 0 32 32">
<path d="M21.709 9.697c-0.018-0.002-0.039-0.003-0.060-0.003-0.347 0-0.629 0.281-0.629 0.629s0.281 0.629 0.629 0.629c0.021 0 0.042-0.001 0.062-0.003l-0.003 0c0.347 0 0.629-0.281 0.629-0.629s-0.281-0.629-0.629-0.629v0zM10.354 21.051c-0.018-0.002-0.039-0.003-0.060-0.003-0.347 0-0.629 0.281-0.629 0.629s0.281 0.629 0.629 0.629c0.021 0 0.042-0.001 0.062-0.003l-0.003 0c0.32-0.032 0.569-0.3 0.569-0.626s-0.248-0.594-0.566-0.625l-0.003-0z"></path>
<path d="M31.257 3.846c-0.042-0.010-0.091-0.016-0.141-0.016-0.175 0-0.334 0.072-0.448 0.187l-0 0-2.589 2.606h-1.246l-1.371-1.417v-1.257l2.56-2.594c0.108-0.113 0.175-0.266 0.175-0.435 0-0.273-0.174-0.505-0.416-0.592l-0.004-0.001c-0.596-0.208-1.282-0.329-1.997-0.329-2.083 0-3.927 1.021-5.059 2.59l-0.013 0.018c-0.742 1.007-1.188 2.273-1.188 3.642 0 0.577 0.079 1.135 0.227 1.664l-0.010-0.043-4.6 4.606-7.669-7.691v-1.509c0-0.217-0.114-0.423-0.303-0.531l-4.423-2.651c-0.092-0.057-0.204-0.090-0.324-0.090-0.172 0-0.328 0.069-0.442 0.181l-1.771 1.771c-0.2 0.2-0.24 0.514-0.091 0.76l2.651 4.417c0.114 0.189 0.314 0.303 0.537 0.303h1.509l7.669 7.691-4.583 4.583c-1.817-0.491-3.714-0.143-5.269 0.971-1.582 1.144-2.599 2.984-2.599 5.062 0 0.716 0.121 1.404 0.343 2.045l-0.013-0.044c0.090 0.245 0.321 0.417 0.592 0.417 0.17 0 0.324-0.067 0.437-0.177l-0 0 2.594-2.611h1.251l1.423 1.423v1.246l-2.611 2.594c-0.109 0.113-0.177 0.267-0.177 0.437 0 0.271 0.172 0.502 0.412 0.59l0.004 0.001c0.597 0.21 1.286 0.331 2.003 0.331 2.080 0 3.922-1.020 5.053-2.587l0.013-0.018c0.739-1.007 1.183-2.27 1.183-3.637 0-0.578-0.079-1.138-0.228-1.669l0.010 0.044 3.68-3.68 0.84 0.914-0.389 0.389c-0.092 0.109-0.148 0.25-0.148 0.405 0 0.347 0.281 0.629 0.629 0.629 0.155 0 0.296-0.056 0.406-0.149l-0.001 0.001 0.349-0.349 7.92 8.594c0 0.011 0.011 0.017 0.017 0.023 0.679 0.679 1.616 1.098 2.651 1.098 2.071 0 3.75-1.679 3.75-3.75 0-1.035-0.42-1.973-1.098-2.651v0c0-0.011-0.011-0.017-0.017-0.023l-8.606-7.897 0.343-0.349c0.147-0.116 0.241-0.294 0.241-0.495 0-0.347-0.281-0.629-0.629-0.629-0.199 0-0.376 0.092-0.491 0.236l-0.001 0.001-0.389 0.389-0.914-0.846 3.697-3.703c0.48 0.132 1.032 0.208 1.601 0.208 3.459 0 6.263-2.804 6.263-6.263 0-0.708-0.118-1.389-0.334-2.024l0.013 0.044c-0.072-0.203-0.24-0.355-0.447-0.405l-0.004-0.001zM5.514 6.371c-0.114-0.114-0.28-0.177-0.446-0.177h-1.406l-2.217-3.703 1.069-1.080 3.697 2.217v1.417c0 0.166 0.069 0.326 0.183 0.44l7.857 7.874-0.886 0.88-7.846-7.869zM21.411 18.56l8.646 7.931c0.414 0.445 0.669 1.044 0.669 1.703 0 1.382-1.121 2.503-2.503 2.503-0.659 0-1.258-0.254-1.704-0.67l0.002 0.001-7.943-8.629 2.84-2.84zM20.491 17.714l-2.76 2.766-0.846-0.914 2.686-2.691 0.926 0.84zM25.783 11.251c-0.549 0-1.086-0.091-1.6-0.263-0.059-0.020-0.128-0.032-0.199-0.032-0.172 0-0.328 0.069-0.441 0.181l-12.371 12.371c-0.171 0.171-0.229 0.417-0.149 0.646 0.514 1.543 0.269 3.189-0.686 4.514-0.907 1.268-2.374 2.084-4.032 2.084-0.2 0-0.397-0.012-0.591-0.035l0.023 0.002 1.983-1.971c0.114-0.114 0.189-0.274 0.189-0.44v-1.771c0-0.166-0.069-0.326-0.183-0.44l-1.794-1.789c-0.113-0.112-0.268-0.182-0.44-0.183h-1.772c-0.166 0-0.32 0.063-0.44 0.183l-1.971 1.989c-0.021-0.169-0.032-0.365-0.032-0.564 0-1.66 0.819-3.13 2.074-4.026l0.015-0.010c0.807-0.594 1.82-0.951 2.916-0.951 0.572 0 1.121 0.097 1.633 0.276l-0.035-0.011c0.229 0.074 0.474 0.017 0.64-0.154l12.371-12.366c0.171-0.171 0.229-0.417 0.149-0.646-0.168-0.476-0.265-1.026-0.265-1.598 0-1.097 0.357-2.11 0.96-2.93l-0.010 0.014c0.907-1.269 2.375-2.086 4.034-2.086 0.206 0 0.408 0.013 0.607 0.037l-0.024-0.002-1.943 1.977c-0.114 0.114-0.183 0.274-0.183 0.44v1.771c0 0.16 0.063 0.314 0.171 0.434l1.731 1.789c0.114 0.12 0.28 0.189 0.451 0.189h1.771c0.16 0 0.32-0.069 0.44-0.183l1.966-1.989c0.018 0.161 0.029 0.348 0.029 0.537 0 2.763-2.238 5.003-5 5.006h-0z"></path>
<path d="M19.497 11.646l-7.817 7.823c-0.085 0.106-0.137 0.243-0.137 0.391 0 0.347 0.281 0.629 0.629 0.629 0.147 0 0.282-0.050 0.389-0.135l-0.001 0.001 7.829-7.829c0.135-0.116 0.22-0.287 0.22-0.478 0-0.347-0.281-0.629-0.629-0.629-0.194 0-0.367 0.088-0.482 0.226l-0.001 0.001zM27.4 28.251c0.106 0.084 0.241 0.134 0.388 0.134 0.347 0 0.629-0.281 0.629-0.629 0-0.148-0.051-0.285-0.137-0.392l0.001 0.001-5.634-5.617c-0.106-0.084-0.241-0.134-0.388-0.134-0.347 0-0.629 0.281-0.629 0.629 0 0.148 0.051 0.285 0.137 0.392l-0.001-0.001 5.634 5.617z"></path>
</symbol>
<symbol id="icon-ufo1" viewBox="0 0 32 32">
<path d="M32 22.331c-0.96-7.663-8.114-8.8-10.131-8.971v-6.96c0-0.046-0.069-4.8-5.869-4.8s-5.869 4.754-5.869 4.8v6.966c-2.017 0.166-9.171 1.303-10.126 8.971l-0.006 0.063v2.131c0 0.297 0.24 0.537 0.531 0.537h2.669v1.063h-1.6c0 0-0 0-0 0-0.294 0-0.531 0.238-0.531 0.531 0 0.002 0 0.004 0 0.006v-0c0 1.291 0.777 3.731 3.731 3.731s3.731-2.44 3.731-3.731c0-0.002 0-0.004 0-0.006 0-0.294-0.238-0.531-0.531-0.531 0 0-0 0-0 0h-1.6v-1.063h8v1.063h-1.6c0 0-0 0-0 0-0.293 0-0.531 0.238-0.531 0.531 0 0.002 0 0.004 0 0.006v-0c0 1.291 0.777 3.731 3.731 3.731s3.731-2.44 3.731-3.731c0-0.002 0-0.004 0-0.006 0-0.294-0.238-0.531-0.531-0.531 0 0-0 0-0 0h-1.6v-1.063h8v1.063h-1.6c0 0-0 0-0 0-0.294 0-0.531 0.238-0.531 0.531 0 0.002 0 0.004 0 0.006v-0c0 1.291 0.777 3.731 3.731 3.731s3.731-2.44 3.731-3.731c0-0.002 0-0.004 0-0.006 0-0.294-0.238-0.531-0.531-0.531 0 0-0 0-0 0h-1.6v-1.063h2.669c0.291 0 0.531-0.24 0.531-0.537v-2.2zM11.2 6.4c0-0.154 0.057-3.731 4.8-3.731 4.714 0 4.8 3.583 4.8 3.731v6.931h-1.069v-3.2h-1.063v3.2h-7.469v-6.931zM6.189 15.434c1.315-0.593 2.846-0.967 4.455-1.033l0.025-0.001h10.663c1.543 0.057 3.069 0.411 4.48 1.034 2.658 1.12 4.583 3.509 5.028 6.388l0.006 0.047h-29.691c0.434-2.88 2.343-5.32 5.029-6.434zM4.8 29.331c-0.055 0.004-0.12 0.007-0.185 0.007-1.242 0-2.268-0.926-2.425-2.126l-0.001-0.012h5.217c-0.164 1.212-1.192 2.137-2.436 2.137-0.060 0-0.119-0.002-0.177-0.006l0.008 0zM5.331 26.131h-1.063v-1.063h1.063v1.063zM16 29.331c-0.055 0.004-0.12 0.007-0.185 0.007-1.242 0-2.268-0.926-2.425-2.126l-0.001-0.012h5.217c-0.164 1.212-1.192 2.137-2.436 2.137-0.060 0-0.119-0.002-0.177-0.006l0.008 0zM16.531 26.131h-1.063v-1.063h1.063v1.063zM27.2 29.331c-0.055 0.004-0.12 0.007-0.185 0.007-1.242 0-2.268-0.926-2.425-2.126l-0.001-0.012h5.217c-0.164 1.212-1.192 2.137-2.436 2.137-0.060 0-0.119-0.002-0.177-0.006l0.008 0zM27.731 26.131h-1.063v-1.063h1.063v1.063zM30.931 24h-29.863v-1.069h29.863v1.069z"></path>
<path d="M16 15.469c-0.037-0.002-0.080-0.003-0.123-0.003-1.474 0-2.669 1.195-2.669 2.669s1.195 2.669 2.669 2.669c0.043 0 0.087-0.001 0.13-0.003l-0.006 0c1.42-0.068 2.545-1.235 2.545-2.666s-1.125-2.598-2.539-2.665l-0.006-0zM16 19.731c-0.884 0-1.6-0.716-1.6-1.6s0.716-1.6 1.6-1.6v0c0.884 0 1.6 0.716 1.6 1.6s-0.716 1.6-1.6 1.6v0z"></path>
<path d="M17.069 18.131c0 0.59-0.478 1.069-1.069 1.069s-1.069-0.478-1.069-1.069v0c0-0.59 0.478-1.069 1.069-1.069s1.069 0.478 1.069 1.069v0zM18.669 8h1.063v1.069h-1.063v-1.069zM18.669 6.4v0.531h1.063v-0.531c0-0.274-0.103-2.669-3.731-2.669v1.069c2.474 0 2.669 1.229 2.669 1.6zM11.2 17.6h1.069v1.069h-1.069v-1.069zM9.069 17.6h1.063v1.069h-1.063v-1.069zM19.731 17.6h1.069v1.069h-1.069v-1.069zM21.869 17.6h1.063v1.069h-1.063v-1.069z"></path>
</symbol>
<symbol id="icon-union" viewBox="0 0 46 32">
<path d="M15.028 6.898l-1.329-1.244-1.328 1.244h-2.195c-1.873 0-3.392 1.519-3.392 3.392v0 10.403c0 1.873 1.519 3.392 3.392 3.392v0h25.781c1.873 0 3.392-1.519 3.392-3.392v0-10.403c0-1.873-1.519-3.392-3.392-3.392v0h-20.93z"></path>
</symbol>
<symbol id="icon-vector_down" viewBox="0 0 55 32">
<path fill="none" stroke="#c7ccdc" style="stroke: var(--color14, #c7ccdc)" stroke-linejoin="miter" stroke-linecap="butt" stroke-miterlimit="4" stroke-width="9.1429" d="M4.571 4.571l23.314 18.286 23.36-18.286"></path>
</symbol>
<symbol id="icon-vector_leftorange" viewBox="0 0 19 32">
<path fill="none" stroke="#ff751d" style="stroke: var(--color2, #ff751d)" stroke-linejoin="miter" stroke-linecap="butt" stroke-miterlimit="4" stroke-width="5.3333" d="M16 2.667l-10.667 13.333 10.667 13.333"></path>
</symbol>
<symbol id="icon-vector_rightorange" viewBox="0 0 19 32">
<path fill="none" stroke="#ff751d" style="stroke: var(--color2, #ff751d)" stroke-linejoin="miter" stroke-linecap="butt" stroke-miterlimit="4" stroke-width="5.3333" d="M2.667 2.667l10.667 13.333-10.667 13.333"></path>
</symbol>
</defs>
</svg>
