<svg width="758" height="232" fill="none" xmlns="http://www.w3.org/2000/svg"><path d="M89 104.35c0 3.97-.86 7.87-2.58 11.67a72.9 72.9 0 0 1-7.24 12.5c-.12.17-.25.33-.39.48l3.4 4.21c.23.3.25.7.06 1.02-.1.15-2.23 3.61-5.66 6.55a25.84 25.84 0 0 1-6.95 4.28.9.9 0 0 1-.9-.16l-2.93-2.6a.9.9 0 0 1-.18-.2c-2.57 1.32-7.37 3.1-15.26 3.73-6.99.57-12.72-.31-17.03-2.62-.24-.13-.61-.31-1.02-.5-.7-.35-1.42-.7-1.82-.94l-1.33-.78c-3.86-2.23-11.04-6.38-16.5-15.85-4.64-8.03-5.12-12.03-5.55-15.55-.25-2.1-.47-3.9-1.56-6.34C2.78 97.05.5 95.8.49 95.8a.91.91 0 0 1-.46-.58.9.9 0 0 1 .12-.73c.45-.64 2.8-3.89 5.09-3.92 1.1-.02 1.86.36 2.4.64.57.29.59.28.75.16.17-.13.27-.37.4-.74.34-.9.85-2.25 3.47-2.31 2.08-.05 3.24 1.04 4.09 1.94.88-1.77 3.29-6.3 6.44-9.9a32.98 32.98 0 0 1 6.05-5.26 28.6 28.6 0 0 1 2.64-1.66c-.62-1.14-.89-1.92-1.1-2.53a3.9 3.9 0 0 0-.94-1.71c-1.9-2.04-.4-5.38-.13-5.79.16-.22.4-.37.68-.4.51-.06.83.23 1.4.76.95.88 2.94 2.71 6.3 3.59 3.01.79 6.51.62 9.6.48 1.95-.1 3.8-.18 5.25 0 4.76.57 14.67 1.76 22.81 9.06a45.43 45.43 0 0 1 9.82 12.67c.58 1.12 1.1 2.25 1.54 3.37a30.81 30.81 0 0 1 2.29 11.4Zm-2.28 4.88c1.24-6.64-.25-13.11-3.1-18.75a16.6 16.6 0 0 0-7.49-1.43c-4.74.1-6.24.92-6.26.92a.9.9 0 0 1-1.21-.3.88.88 0 0 1 .28-1.21c.18-.11 1.87-1.08 7.16-1.2 2.62-.05 4.71.36 6.19.8a43.16 43.16 0 0 0-8.12-9.83 29.98 29.98 0 0 0-4.78-3.5c-.8.33-3.1 1.07-6.96.67-4.5-.46-6.95-.63-6.97-.64a.89.89 0 1 1 .12-1.77c.02 0 2.5.17 7.04.64 1.98.2 3.48.08 4.52-.1-5.82-2.85-11.56-3.54-14.81-3.93-1.3-.16-3.08-.08-4.95.01-3.22.15-6.86.32-10.14-.53a15.68 15.68 0 0 1-6.8-3.76c-.2.83-.32 2 .3 2.67.83.9 1.06 1.57 1.33 2.35.25.74.57 1.66 1.56 3.26.91 1.47 2.11 1.5 4 1.44 1.24-.04 2.65-.09 3.9.64 2.17 1.27 1.67 2.81 1.34 3.83-.18.55-.33 1.04-.22 1.54.39.04 1.46-.28 2.27-.53 1.84-.56 4.36-1.33 6.9-.91 1.42.23 2.3.66 2.74 1.34.52.8.3 1.64.13 2.32-.23.9-.21 1.07.16 1.33 1.43.98 2.73 1.26 4.53 1.64.76.16 1.62.34 2.58.6a4.65 4.65 0 0 1 3.15 2.3c.87 1.72.63 4.18-.76 7.76a21.74 21.74 0 0 0-1.46 7.54v.02c0 .78.37 1.47.93 2.24 4.92 5.13 7.7 10.78 7.96 16.36.04 1.07 0 2.2-.1 3.35.31 1.25 1.28 2 2.2 2.32 1.16.38 2.78.25 3.86-1.25a71.03 71.03 0 0 0 7.06-12.2c.58-1.29 1.05-2.58 1.41-3.87-.43-.56-2.51-3.2-6.11-5.61-.43.18-3 1.28-5.27 1.41-1.14.07-2.6.1-3.1-.09l.62-1.66-.07-.02c.02 0 .52.1 2.44 0 1.2-.07 2.54-.47 3.49-.81-4.7-2.7-6.37-3.1-6.38-3.1a.9.9 0 0 1-.68-1.06.89.89 0 0 1 1.04-.68c.2.03 2.04.46 7.29 3.52a29.6 29.6 0 0 1 7.24 5.92ZM69.5 143.19a25.25 25.25 0 0 0 5.93-3.76 29.65 29.65 0 0 0 4.96-5.6l-2.68-3.33c-.94 1.22-2.46 3.17-3.53 4.42a40.64 40.64 0 0 1-6.24 5.77.9.9 0 0 1-.18.1l-.54.39 2.28 2.01Zm-.18-5.91a36.57 36.57 0 0 0 3.5-3.52c.72-.84 1.67-2.02 2.5-3.08a5.31 5.31 0 0 1-4-1.48c-.52 3.06-1.35 6-2 8.08Zm-2.58 2.05c.44-1.21 2.58-7.27 3.14-12.83-.06-.35-.1-.71-.09-1.08.03-1.72-.09-3.36-.36-4.88-1.02-5.57-4.08-9.2-5.9-11.38a40.85 40.85 0 0 1-1.08-1.32 43.9 43.9 0 0 0-5.06-4.45c-7.44-5.64-11-5.3-12.71-5.12l-.25.02c-.44.04-1.24.29-2.1.55-2.2.68-5.22 1.62-7.44.74-2.06-.82-2.25-2.9-2.42-4.9-.13-1.44-.27-2.93-1.04-4.1-1.65-2.48-5.9-1.23-8.15-.1-.89.45-1.56 1-2.14 1.5-1.02.83-2.06 1.69-3.64 1.3-1-.26-1.66-.95-2.28-1.63-.8-.85-1.5-1.6-2.92-1.56-1.41.04-1.56.44-1.84 1.16a3.11 3.11 0 0 1-1 1.54c-1.06.8-1.96.34-2.62 0a3.12 3.12 0 0 0-1.58-.44c-.83 0-2.18 1.3-3.12 2.46 1.06.9 2.94 3.01 5.04 7.71 1.2 2.68 1.45 4.71 1.7 6.86.41 3.35.87 7.16 5.33 14.87 5.23 9.06 11.88 12.9 15.85 15.2l1.37.8c.32.2 1.07.56 1.66.85.44.21.84.4 1.09.54 3.71 1.99 8.62 2.83 14.61 2.52a47.18 47.18 0 0 1-17.36-9.43c-10.39-9.02-16.06-26.54-16.3-27.28a.89.89 0 0 1 1.7-.54c.05.17 5.21 16.1 14.32 25.13.58-1.75 1.74-5.82 1.09-8.65-.27-1.16-.52-2.16-.74-3.05-.55-2.2-.95-3.78-1.03-5.65v-.03a.89.89 0 0 1 1.78-.03c.06 1.6.41 3.04.9 4.98l1.66-1.73a.9.9 0 0 1 1.29 1.23l-2.44 2.54.31 1.35c.89 3.87-1 9.31-1.4 10.37a43.87 43.87 0 0 0 10.05 6.51c-1.29-2.38-2.95-6.25-1.72-8.7.81-1.64 2.29-2.89 3.7-4.1 1.56-1.31 3.03-2.55 3.58-4.18a.9.9 0 0 1 1.69.57c-.71 2.1-2.44 3.56-4.11 4.97-.6.52-1.2 1.02-1.73 1.53 1.16.38 3.35 1 5.13 1.02 2.55.03 6.15-1.24 6.18-1.25a.89.89 0 0 1 .6 1.67c-.16.06-3.93 1.39-6.8 1.36-2.51-.03-5.54-1.05-6.34-1.34-.12.18-.22.35-.3.53-1.12 2.22 1.72 7.32 2.8 8.93.05.06.08.13.1.2a40.65 40.65 0 0 0 8.92 2.5c8.06-1.23 11.66-3.68 12.42-4.26Zm-5.62-35.2c.04-1.92.37-4.76 1.57-7.87 1.16-2.99 1.44-5.11.83-6.3-.34-.67-1-1.13-2.02-1.4-.92-.25-1.72-.42-2.5-.58-1.84-.4-3.44-.73-5.16-1.92-1.45-1-1.1-2.4-.88-3.23.1-.36.2-.77.1-.9-.03-.07-.28-.36-1.53-.57-2.13-.35-4.33.32-6.1.86-1.63.5-2.82.86-3.7.37a1.63 1.63 0 0 1-.79-1.04c-.27-1.03.01-1.9.24-2.58.3-.98.39-1.2-.56-1.76-.8-.46-1.84-.43-2.94-.39-1.69.06-3.77.13-5.26-1.84-1.17.64-5.16 3-8.3 6.56-3.28 3.75-5.8 8.73-6.39 9.94l.2.07c.65.16 1.04-.1 2.07-.95.63-.52 1.41-1.16 2.48-1.7 3.45-1.74 8.25-2.6 10.44.7 1.02 1.54 1.18 3.34 1.32 4.92.17 1.91.31 3.01 1.3 3.4 1.65.66 4.32-.17 6.27-.78.98-.3 1.83-.56 2.46-.62l.23-.02c1.94-.2 5.97-.59 13.97 5.47.93.7 1.81 1.42 2.65 2.16ZM142 190.65c0-3.97.86-7.87 2.58-11.67a72.9 72.9 0 0 1 7.24-12.5c.12-.17.25-.33.39-.48l-3.4-4.21a.89.89 0 0 1-.06-1.02 30.8 30.8 0 0 1 5.66-6.55 25.83 25.83 0 0 1 6.95-4.28.9.9 0 0 1 .9.16l2.93 2.6c.07.06.13.13.18.2 2.57-1.32 7.37-3.1 15.26-3.73 6.99-.57 12.72.31 17.03 2.62.24.13.61.31 1.02.5.7.35 1.42.7 1.82.94l1.33.78c3.86 2.23 11.04 6.38 16.5 15.85 4.64 8.03 5.12 12.02 5.55 15.55.25 2.1.47 3.9 1.56 6.34 2.78 6.2 5.05 7.44 5.07 7.45.23.12.4.34.46.58.06.25.02.52-.12.73-.45.65-2.8 3.89-5.09 3.92a4.81 4.81 0 0 1-2.4-.64c-.57-.29-.59-.28-.75-.16-.17.13-.27.37-.4.74-.34.9-.85 2.25-3.47 2.31-2.08.05-3.24-1.04-4.09-1.94a49.86 49.86 0 0 1-6.44 9.9 33.03 33.03 0 0 1-6.05 5.26 28.49 28.49 0 0 1-2.64 1.66c.62 1.14.89 1.92 1.1 2.53.24.7.37 1.1.94 1.71 1.9 2.04.4 5.38.13 5.79a.95.95 0 0 1-.68.4c-.51.06-.83-.23-1.4-.76-.95-.88-2.94-2.71-6.3-3.59-3.01-.79-6.52-.62-9.6-.48-1.96.1-3.8.18-5.25 0-4.76-.57-14.67-1.76-22.81-9.06a45.44 45.44 0 0 1-9.82-12.67 37.57 37.57 0 0 1-1.54-3.37 30.81 30.81 0 0 1-2.29-11.4Zm2.28-4.88c-1.25 6.64.25 13.11 3.1 18.75.8.39 3.46 1.52 7.49 1.44 4.74-.1 6.24-.93 6.26-.93a.9.9 0 0 1 1.21.3c.25.42.13.95-.28 1.21-.18.11-1.87 1.08-7.16 1.2-2.62.05-4.71-.36-6.19-.8a43.15 43.15 0 0 0 8.13 9.83 29.95 29.95 0 0 0 4.77 3.5c.8-.33 3.1-1.07 6.96-.67 4.5.46 6.95.64 6.97.64.5.03.86.46.83.94a.89.89 0 0 1-.95.83c-.02 0-2.5-.17-7.04-.64-1.98-.2-3.48-.08-4.52.1 5.82 2.85 11.56 3.54 14.81 3.93 1.3.16 3.08.08 4.95-.01 3.22-.15 6.87-.32 10.14.53 3.5.92 5.65 2.72 6.8 3.76.2-.83.32-2-.3-2.67-.83-.9-1.06-1.57-1.33-2.35a14.1 14.1 0 0 0-1.56-3.26c-.91-1.47-2.11-1.5-4-1.44-1.24.04-2.65.09-3.9-.64-2.17-1.27-1.67-2.81-1.34-3.83.18-.56.34-1.04.22-1.54-.39-.04-1.46.28-2.27.53-1.84.56-4.36 1.33-6.9.91-1.43-.23-2.3-.66-2.74-1.34-.52-.8-.3-1.64-.13-2.32.23-.9.21-1.07-.16-1.33-1.43-.98-2.73-1.26-4.53-1.64-.75-.16-1.62-.34-2.58-.6a4.65 4.65 0 0 1-3.14-2.3c-.88-1.72-.64-4.18.75-7.76a21.74 21.74 0 0 0 1.46-7.54v-.02c0-.78-.37-1.47-.93-2.24-4.93-5.13-7.7-10.79-7.96-16.36-.04-1.07 0-2.2.1-3.35a3.31 3.31 0 0 0-2.2-2.32 3.33 3.33 0 0 0-3.86 1.25 71.07 71.07 0 0 0-7.06 12.2 26.96 26.96 0 0 0-1.41 3.87c.43.56 2.52 3.2 6.11 5.61.43-.18 3-1.28 5.27-1.41 1.14-.07 2.6-.1 3.1.09l-.62 1.66.07.02c-.02 0-.52-.1-2.44 0-1.2.07-2.54.47-3.49.81 4.7 2.7 6.37 3.1 6.38 3.1.48.11.78.58.68 1.06a.88.88 0 0 1-1.04.69c-.2-.04-2.04-.47-7.29-3.53a29.58 29.58 0 0 1-7.24-5.92Zm17.22-33.96a25.24 25.24 0 0 0-5.93 3.76 29.66 29.66 0 0 0-4.96 5.6l2.68 3.33c.94-1.22 2.46-3.17 3.53-4.42 2.84-3.3 6.1-5.67 6.24-5.77a.89.89 0 0 1 .18-.1l.54-.39-2.28-2.01Zm.18 5.91a36.58 36.58 0 0 0-3.5 3.52c-.72.84-1.67 2.02-2.5 3.08a5.31 5.31 0 0 1 4 1.48c.52-3.06 1.35-6 2-8.08Zm2.58-2.05c-.44 1.21-2.58 7.27-3.14 12.83.06.35.1.71.09 1.08-.03 1.72.09 3.36.36 4.88 1.03 5.57 4.08 9.2 5.9 11.38.33.38.62.72.86 1.03l.22.29a43.92 43.92 0 0 0 5.06 4.45c7.44 5.64 11 5.3 12.71 5.12l.25-.02c.44-.04 1.24-.29 2.1-.55 2.2-.69 5.22-1.62 7.44-.74 2.06.82 2.25 2.9 2.42 4.9.13 1.44.27 2.93 1.04 4.1 1.65 2.48 5.9 1.23 8.15.1.89-.45 1.56-1 2.15-1.5 1-.83 2.05-1.69 3.63-1.3 1 .26 1.66.96 2.28 1.63.8.85 1.5 1.6 2.92 1.56 1.41-.04 1.56-.44 1.84-1.16.18-.49.4-1.1 1-1.54 1.06-.8 1.96-.34 2.62 0 .47.23.91.45 1.58.44.83 0 2.18-1.3 3.12-2.46-1.06-.9-2.94-3.01-5.04-7.71a21.24 21.24 0 0 1-1.7-6.86c-.41-3.35-.87-7.16-5.33-14.87-5.23-9.06-11.88-12.9-15.85-15.2l-1.37-.8c-.32-.2-1.07-.56-1.66-.85-.44-.21-.84-.4-1.09-.54-3.71-1.99-8.62-2.83-14.61-2.52a47.2 47.2 0 0 1 17.36 9.43c10.39 9.02 16.06 26.54 16.3 27.28a.89.89 0 0 1-1.7.54c-.05-.17-5.21-16.1-14.32-25.13-.58 1.75-1.74 5.82-1.09 8.65.27 1.16.52 2.16.74 3.05.56 2.2.95 3.78 1.03 5.65a23.89 23.89 0 0 0-2.68-4.92l-1.66 1.73a.9.9 0 0 1-1.29-1.23l2.44-2.54-.31-1.35c-.89-3.87 1-9.31 1.4-10.37-.02 0-.02 0-.03-.02a43.88 43.88 0 0 0-10.02-6.49c1.29 2.38 2.95 6.25 1.72 8.7-.81 1.64-2.28 2.89-3.7 4.1-1.56 1.31-3.03 2.55-3.58 4.18a.9.9 0 0 1-1.69-.57c.71-2.1 2.44-3.56 4.11-4.97.6-.52 1.2-1.02 1.73-1.53-1.16-.38-3.35-1-5.13-1.02-2.55-.03-6.15 1.24-6.18 1.25a.89.89 0 1 1-.6-1.67c.16-.06 3.94-1.39 6.8-1.36 2.51.03 5.54 1.05 6.34 1.34.12-.18.22-.35.3-.53 1.12-2.22-1.72-7.32-2.8-8.93a.89.89 0 0 1-.1-.2c-5.07-2-8.83-2.49-8.9-2.5h-.02c-8.06 1.23-11.66 3.68-12.42 4.26Zm5.62 35.2a23.6 23.6 0 0 1-1.57 7.87c-1.16 2.99-1.44 5.11-.83 6.3.34.67 1 1.13 2.02 1.4.92.25 1.72.42 2.5.58 1.84.4 3.44.73 5.16 1.92 1.45 1 1.1 2.4.88 3.23-.1.36-.2.77-.1.9.03.07.28.36 1.53.57 2.13.35 4.33-.32 6.1-.86 1.63-.5 2.82-.86 3.7-.37.27.15.63.46.79 1.04.27 1.03-.01 1.89-.24 2.59-.3.97-.39 1.2.56 1.75.8.46 1.84.43 2.94.39 1.69-.06 3.77-.13 5.26 1.84 1.17-.64 5.16-3 8.3-6.56 3.28-3.75 5.8-8.73 6.39-9.94a1.37 1.37 0 0 0-.2-.07c-.65-.16-1.04.1-2.07.95-.63.52-1.41 1.16-2.48 1.7-3.45 1.74-8.25 2.6-10.44-.7-1.02-1.54-1.18-3.34-1.32-4.92-.17-1.91-.31-3.01-1.3-3.4-1.65-.66-4.32.17-6.27.78-.98.3-1.83.56-2.46.62l-.23.02c-1.94.2-5.97.59-13.97-5.47-.93-.7-1.81-1.43-2.65-2.16ZM171.65 89c-3.97 0-7.87-.86-11.67-2.58a72.9 72.9 0 0 1-12.5-7.24 5.63 5.63 0 0 1-.48-.39l-4.21 3.4c-.3.23-.7.25-1.02.06a30.81 30.81 0 0 1-6.55-5.66 25.84 25.84 0 0 1-4.28-6.95.9.9 0 0 1 .16-.9l2.6-2.93a.9.9 0 0 1 .2-.18c-1.32-2.57-3.1-7.37-3.73-15.26-.57-6.99.31-12.72 2.62-17.03.13-.24.31-.61.5-1.02.35-.7.7-1.42.94-1.82l.78-1.33c2.23-3.86 6.38-11.04 15.85-16.5 8.03-4.64 12.02-5.12 15.55-5.55 2.1-.25 3.9-.47 6.34-1.56 6.2-2.78 7.44-5.05 7.45-5.07a.9.9 0 0 1 1.3-.34c.66.45 3.9 2.8 3.93 5.09a4.81 4.81 0 0 1-.64 2.4c-.29.57-.28.59-.16.75.13.17.37.27.74.4.9.34 2.25.85 2.31 3.47.05 2.08-1.04 3.24-1.94 4.09 1.77.88 6.3 3.29 9.9 6.44a32.99 32.99 0 0 1 5.26 6.05 28.56 28.56 0 0 1 1.66 2.64c1.14-.62 1.92-.89 2.53-1.1.7-.24 1.1-.37 1.71-.94 2.04-1.9 5.38-.4 5.79-.13.22.16.37.4.4.68.06.51-.23.83-.76 1.4-.88.95-2.71 2.94-3.59 6.3-.79 3.01-.62 6.51-.48 9.6.1 1.95.18 3.8 0 5.25-.57 4.76-1.76 14.67-9.06 22.81a45.45 45.45 0 0 1-12.67 9.82 37.4 37.4 0 0 1-3.37 1.54 30.81 30.81 0 0 1-11.4 2.29Zm-4.88-2.28c6.64 1.24 13.11-.25 18.75-3.1.39-.8 1.52-3.46 1.44-7.49-.1-4.74-.93-6.24-.93-6.26a.9.9 0 0 1 .3-1.21.88.88 0 0 1 1.21.28c.11.18 1.08 1.87 1.2 7.16.05 2.62-.36 4.71-.8 6.19a43.16 43.16 0 0 0 9.83-8.12 29.97 29.97 0 0 0 3.5-4.78c-.33-.8-1.07-3.1-.67-6.96.46-4.5.64-6.95.64-6.97a.89.89 0 1 1 1.77.12c0 .02-.17 2.5-.64 7.04-.2 1.98-.08 3.48.1 4.52 2.85-5.82 3.54-11.56 3.93-14.81.16-1.3.08-3.08-.01-4.95-.15-3.22-.32-6.86.53-10.14.92-3.5 2.72-5.65 3.76-6.8-.83-.2-2-.32-2.67.3a5.62 5.62 0 0 1-2.35 1.33c-.74.25-1.66.57-3.26 1.56-1.47.91-1.5 2.11-1.44 4 .04 1.24.09 2.65-.64 3.9-1.27 2.17-2.81 1.67-3.83 1.34-.56-.18-1.04-.33-1.54-.22-.04.39.28 1.46.53 2.27.56 1.84 1.33 4.36.91 6.9-.23 1.42-.66 2.3-1.34 2.74-.8.52-1.64.3-2.32.13-.9-.23-1.07-.21-1.33.16-.98 1.43-1.26 2.73-1.64 4.53-.16.76-.34 1.62-.6 2.58a4.65 4.65 0 0 1-2.3 3.15c-1.72.87-4.18.63-7.76-.76a21.74 21.74 0 0 0-7.54-1.46h-.02c-.78 0-1.47.37-2.24.93-5.13 4.92-10.79 7.7-16.36 7.96-1.07.04-2.2 0-3.35-.1-1.25.31-2 1.28-2.32 2.2a3.33 3.33 0 0 0 1.25 3.86 71.03 71.03 0 0 0 12.2 7.06c1.29.58 2.58 1.05 3.87 1.41.56-.43 3.2-2.51 5.61-6.11-.18-.43-1.28-3-1.41-5.27-.07-1.14-.1-2.6.09-3.1l1.66.62.02-.07c0 .02-.1.52 0 2.44.07 1.2.47 2.54.81 3.49 2.7-4.7 3.1-6.37 3.1-6.38a.9.9 0 0 1 1.06-.68c.47.1.78.56.69 1.04-.04.2-.47 2.04-3.53 7.29a29.6 29.6 0 0 1-5.92 7.24ZM132.81 69.5a25.25 25.25 0 0 0 3.76 5.93 29.65 29.65 0 0 0 5.6 4.96l3.33-2.68c-1.22-.94-3.17-2.46-4.42-3.53a40.64 40.64 0 0 1-5.77-6.24.9.9 0 0 1-.1-.18l-.39-.54-2.01 2.28Zm5.91-.18a36.57 36.57 0 0 0 3.52 3.5c.84.72 2.02 1.67 3.08 2.5a5.31 5.31 0 0 1 1.48-4c-3.06-.52-6-1.35-8.08-2Zm-2.05-2.58c1.21.44 7.27 2.58 12.83 3.14.35-.06.71-.1 1.08-.09 1.72.03 3.36-.09 4.88-.36 5.57-1.02 9.2-4.08 11.38-5.9a40.85 40.85 0 0 1 1.32-1.08 43.9 43.9 0 0 0 4.45-5.06c5.64-7.44 5.3-11 5.12-12.71l-.02-.25c-.04-.44-.29-1.24-.55-2.1-.69-2.2-1.62-5.22-.74-7.44.82-2.06 2.9-2.25 4.9-2.42 1.44-.13 2.93-.27 4.1-1.04 2.48-1.65 1.23-5.9.1-8.15-.45-.89-1-1.56-1.5-2.14-.83-1.02-1.69-2.06-1.3-3.64.26-1 .96-1.66 1.63-2.28.85-.8 1.6-1.5 1.56-2.92-.04-1.41-.44-1.56-1.16-1.84a3.11 3.11 0 0 1-1.54-1c-.8-1.06-.34-1.96 0-2.62.23-.47.45-.91.44-1.58 0-.83-1.3-2.18-2.46-3.12-.9 1.06-3.01 2.94-7.71 5.04-2.68 1.2-4.71 1.45-6.86 1.7-3.35.41-7.16.87-14.87 5.33-9.06 5.23-12.9 11.88-15.2 15.85l-.8 1.37c-.2.32-.56 1.07-.85 1.66-.21.44-.4.84-.54 1.09-1.99 3.71-2.83 8.62-2.52 14.61a47.18 47.18 0 0 1 9.43-17.36c9.02-10.39 26.54-16.06 27.28-16.3a.89.89 0 0 1 .54 1.7c-.17.05-16.1 5.21-25.13 14.32 1.75.58 5.82 1.74 8.65 1.09 1.16-.27 2.16-.52 3.05-.74 2.2-.55 3.78-.95 5.65-1.03h.03a.89.89 0 0 1 .03 1.78c-1.6.06-3.04.41-4.98.9l1.73 1.66a.9.9 0 0 1-1.23 1.29l-2.54-2.44-1.35.31c-3.87.89-9.31-1-10.37-1.4 0 .01 0 .02-.02.03a43.87 43.87 0 0 0-6.49 10.02c2.38-1.29 6.25-2.95 8.7-1.72 1.64.81 2.89 2.29 4.1 3.7 1.31 1.56 2.55 3.03 4.18 3.58a.9.9 0 0 1-.57 1.69c-2.1-.71-3.56-2.44-4.97-4.11-.52-.6-1.02-1.2-1.53-1.73-.38 1.16-1 3.35-1.02 5.13-.03 2.55 1.24 6.15 1.25 6.18a.89.89 0 0 1-1.67.6c-.06-.16-1.39-3.93-1.36-6.8.03-2.51 1.05-5.54 1.34-6.34a5.59 5.59 0 0 0-.53-.3c-2.22-1.12-7.32 1.72-8.93 2.8a.88.88 0 0 1-.2.1 40.65 40.65 0 0 0-2.5 8.92c1.23 8.06 3.68 11.66 4.26 12.42Zm35.2-5.62c1.92.04 4.76.37 7.87 1.57 2.99 1.16 5.11 1.44 6.3.83.67-.34 1.13-1 1.4-2.02.25-.92.42-1.72.58-2.5.4-1.84.73-3.44 1.92-5.16 1-1.45 2.4-1.1 3.23-.88.36.1.77.2.9.1.07-.03.36-.28.57-1.53.35-2.13-.32-4.33-.86-6.1-.5-1.63-.86-2.82-.37-3.7.15-.28.46-.63 1.04-.79 1.03-.27 1.89.01 2.59.24.97.3 1.2.39 1.75-.56.46-.8.43-1.84.39-2.94-.06-1.69-.13-3.77 1.84-5.26-.64-1.17-3-5.16-6.56-8.3-3.75-3.28-8.73-5.8-9.94-6.39l-.07.2c-.16.65.1 1.04.95 2.07.52.63 1.16 1.41 1.7 2.48 1.74 3.45 2.6 8.25-.7 10.44-1.54 1.02-3.34 1.18-4.92 1.32-1.91.17-3.01.31-3.4 1.3-.66 1.65.17 4.32.78 6.27.3.98.56 1.83.62 2.46l.02.23c.2 1.94.59 5.97-5.47 13.97-.7.93-1.43 1.81-2.16 2.65ZM420.35 0c3.97 0 7.87.86 11.67 2.58a72.89 72.89 0 0 1 12.5 7.24c.17.12.33.25.48.39l4.21-3.4c.3-.23.7-.25 1.02-.06.15.1 3.61 2.23 6.55 5.66a25.84 25.84 0 0 1 4.28 6.95.9.9 0 0 1-.17.9l-2.58 2.93a.9.9 0 0 1-.22.18c1.33 2.57 3.1 7.37 3.74 15.26.57 6.99-.31 12.72-2.62 17.03-.13.24-.31.61-.5 1.02-.35.7-.7 1.42-.94 1.82l-.78 1.33c-2.23 3.86-6.38 11.04-15.85 16.5-8.03 4.64-12.02 5.12-15.55 5.55-2.1.25-3.9.47-6.34 1.56-6.2 2.78-7.44 5.05-7.45 5.07a.9.9 0 0 1-1.3.34c-.65-.45-3.9-2.8-3.93-5.09-.02-1.1.36-1.86.64-2.4.29-.57.28-.59.16-.75-.13-.17-.37-.27-.74-.4-.9-.34-2.25-.85-2.31-3.47-.05-2.08 1.04-3.24 1.94-4.09a49.87 49.87 0 0 1-9.9-6.44 32.99 32.99 0 0 1-5.25-6.05 28.56 28.56 0 0 1-1.67-2.64c-1.14.62-1.92.89-2.52 1.1a3.9 3.9 0 0 0-1.72.94c-2.04 1.9-5.38.4-5.79.13a.95.95 0 0 1-.4-.68c-.06-.51.23-.83.76-1.4.88-.95 2.71-2.94 3.59-6.3.79-3.01.62-6.51.48-9.6-.1-1.95-.18-3.8 0-5.25.57-4.76 1.76-14.67 9.06-22.81a45.45 45.45 0 0 1 12.67-9.82 37.4 37.4 0 0 1 3.37-1.54A30.81 30.81 0 0 1 420.34 0Zm4.88 2.28c-6.64-1.24-13.11.25-18.75 3.1-.39.8-1.52 3.46-1.44 7.49.1 4.74.93 6.24.93 6.26a.9.9 0 0 1-.3 1.21.88.88 0 0 1-1.21-.28c-.11-.18-1.08-1.87-1.2-7.16-.05-2.62.36-4.71.8-6.19a43.16 43.16 0 0 0-9.83 8.12 29.97 29.97 0 0 0-3.5 4.78c.33.8 1.07 3.1.67 6.96-.46 4.5-.63 6.95-.64 6.97a.89.89 0 1 1-1.77-.12c0-.02.17-2.5.64-7.04.2-1.98.08-3.48-.1-4.52-2.85 5.82-3.54 11.56-3.93 14.81-.16 1.3-.08 3.08.01 4.95.15 3.22.32 6.86-.53 10.14a15.68 15.68 0 0 1-3.76 6.8c.83.2 2 .32 2.67-.3a5.62 5.62 0 0 1 2.35-1.33c.74-.25 1.66-.57 3.26-1.56 1.47-.91 1.5-2.11 1.44-4-.04-1.24-.09-2.65.64-3.9 1.27-2.17 2.81-1.67 3.83-1.34.56.18 1.04.33 1.54.22a9.32 9.32 0 0 0-.53-2.27c-.56-1.84-1.33-4.36-.91-6.9.23-1.42.66-2.3 1.34-2.74.8-.52 1.64-.3 2.32-.13.9.23 1.07.21 1.33-.16.98-1.43 1.26-2.73 1.64-4.53.16-.76.34-1.62.6-2.58a4.65 4.65 0 0 1 2.3-3.14c1.72-.88 4.18-.64 7.76.75a21.74 21.74 0 0 0 7.54 1.46h.02c.78 0 1.47-.37 2.24-.93 5.13-4.92 10.79-7.7 16.36-7.96 1.07-.04 2.2 0 3.35.1 1.25-.31 2-1.28 2.32-2.2a3.33 3.33 0 0 0-1.25-3.86 71.04 71.04 0 0 0-12.2-7.06 27 27 0 0 0-3.87-1.41c-.56.43-3.2 2.51-5.61 6.11.18.43 1.28 3 1.41 5.27.07 1.14.1 2.6-.09 3.1l-1.66-.62-.02.07c0-.02.1-.52 0-2.44-.07-1.2-.48-2.54-.81-3.49-2.7 4.7-3.1 6.37-3.1 6.38a.9.9 0 0 1-1.06.68.89.89 0 0 1-.69-1.04c.04-.2.48-2.04 3.53-7.29a29.6 29.6 0 0 1 5.92-7.24Zm33.96 17.22a25.24 25.24 0 0 0-3.76-5.93 29.65 29.65 0 0 0-5.6-4.96l-3.33 2.68c1.21.94 3.17 2.46 4.42 3.53 3.3 2.84 5.67 6.1 5.77 6.24a.9.9 0 0 1 .1.18l.38.54 2.02-2.28Zm-5.91.18a36.57 36.57 0 0 0-3.52-3.5 92.63 92.63 0 0 0-3.08-2.5 5.31 5.31 0 0 1-1.48 4c3.06.52 6 1.35 8.08 2Zm2.05 2.58c-1.21-.44-7.26-2.58-12.83-3.14-.35.06-.71.1-1.08.09-1.72-.03-3.36.09-4.88.36-5.57 1.02-9.2 4.08-11.38 5.9a40.85 40.85 0 0 1-1.32 1.08 43.9 43.9 0 0 0-4.45 5.06c-5.64 7.44-5.3 11-5.12 12.71l.02.25c.04.44.29 1.24.55 2.1.69 2.2 1.62 5.22.74 7.44-.82 2.06-2.9 2.25-4.9 2.42-1.44.13-2.93.27-4.1 1.04-2.48 1.65-1.23 5.9-.1 8.15.45.89 1 1.56 1.5 2.14.83 1.02 1.69 2.06 1.3 3.64-.26 1-.95 1.66-1.63 2.28-.85.8-1.6 1.5-1.56 2.92.04 1.41.44 1.56 1.16 1.84.49.18 1.1.4 1.54 1 .8 1.06.34 1.96 0 2.62a3.1 3.1 0 0 0-.44 1.58c0 .83 1.3 2.18 2.46 3.12.9-1.06 3.01-2.94 7.71-5.04 2.68-1.2 4.71-1.45 6.86-1.7 3.35-.41 7.16-.87 14.87-5.33 9.06-5.23 12.9-11.88 15.2-15.85l.8-1.37c.2-.32.56-1.07.85-1.66.21-.44.4-.84.54-1.09 1.99-3.71 2.83-8.62 2.52-14.61a47.18 47.18 0 0 1-9.43 17.36c-9.02 10.39-26.54 16.06-27.28 16.3a.89.89 0 0 1-.54-1.7c.17-.05 16.1-5.21 25.13-14.32-1.75-.58-5.82-1.74-8.65-1.09-1.16.27-2.16.52-3.05.74-2.2.55-3.78.95-5.64 1.03h-.04a.89.89 0 0 1-.03-1.78 23.9 23.9 0 0 0 4.98-.9l-1.73-1.66a.9.9 0 0 1 1.23-1.29l2.54 2.44 1.35-.31c3.87-.89 9.31 1 10.37 1.4a43.87 43.87 0 0 0 6.51-10.05c-2.38 1.29-6.25 2.95-8.7 1.72-1.64-.81-2.89-2.29-4.1-3.7-1.31-1.56-2.55-3.03-4.18-3.58a.9.9 0 0 1 .57-1.69c2.1.71 3.56 2.44 4.97 4.11.52.6 1.02 1.2 1.53 1.73.38-1.16 1-3.35 1.02-5.13.03-2.55-1.24-6.15-1.25-6.18a.89.89 0 0 1 1.67-.6c.06.16 1.39 3.93 1.36 6.8-.03 2.51-1.05 5.54-1.34 6.34.18.12.35.22.53.3 2.22 1.12 7.32-1.72 8.93-2.8a.88.88 0 0 1 .2-.1 40.65 40.65 0 0 0 2.5-8.92c-1.23-8.06-3.68-11.66-4.26-12.42Zm-35.2 5.62a23.57 23.57 0 0 1-7.87-1.57c-2.99-1.16-5.11-1.44-6.3-.83-.67.34-1.13 1-1.4 2.02-.25.92-.42 1.72-.58 2.5-.4 1.84-.73 3.44-1.92 5.16-1 1.45-2.4 1.1-3.23.88-.36-.1-.77-.2-.9-.1-.07.03-.36.28-.57 1.53-.35 2.13.32 4.33.86 6.1.5 1.63.86 2.82.37 3.7-.15.28-.46.63-1.04.79-1.03.27-1.89-.01-2.59-.24-.97-.3-1.2-.39-1.75.56-.46.8-.43 1.84-.39 2.94.06 1.69.13 3.77-1.84 5.26.64 1.17 3 5.16 6.56 8.3 3.75 3.28 8.73 5.8 9.94 6.39l.07-.2c.16-.65-.1-1.04-.95-2.07-.52-.63-1.17-1.41-1.7-2.48-1.74-3.45-2.6-8.25.7-10.44 1.54-1.02 3.34-1.18 4.92-1.32 1.91-.17 3.01-.31 3.4-1.3.65-1.65-.17-4.32-.78-6.27-.3-.98-.56-1.83-.62-2.46l-.02-.23c-.2-1.94-.59-5.97 5.47-13.97.7-.93 1.42-1.81 2.16-2.65ZM669.65 89c-3.97 0-7.87-.86-11.67-2.58a72.9 72.9 0 0 1-12.5-7.24 5.63 5.63 0 0 1-.48-.39l-4.21 3.4c-.3.23-.7.25-1.02.06a30.81 30.81 0 0 1-6.55-5.66 25.84 25.84 0 0 1-4.28-6.95.9.9 0 0 1 .16-.9l2.6-2.93a.9.9 0 0 1 .2-.18c-1.32-2.57-3.1-7.37-3.73-15.26-.57-6.99.31-12.72 2.62-17.03.13-.24.31-.61.5-1.02.35-.7.7-1.42.94-1.82l.78-1.33c2.23-3.86 6.38-11.04 15.85-16.5 8.03-4.64 12.02-5.12 15.55-5.55 2.1-.25 3.9-.47 6.34-1.56 6.2-2.78 7.44-5.05 7.45-5.07a.9.9 0 0 1 1.3-.34c.65.45 3.9 2.8 3.93 5.09a4.81 4.81 0 0 1-.64 2.4c-.29.57-.28.59-.16.75.13.17.37.27.74.4.9.34 2.25.85 2.31 3.47.05 2.08-1.04 3.24-1.94 4.09 1.77.88 6.3 3.29 9.9 6.44a32.99 32.99 0 0 1 5.25 6.05 28.56 28.56 0 0 1 1.67 2.64c1.14-.62 1.92-.89 2.53-1.1.7-.24 1.1-.37 1.71-.94 2.04-1.9 5.38-.4 5.79-.13.23.16.37.4.4.68.06.51-.23.83-.76 1.4-.88.95-2.71 2.94-3.59 6.3-.79 3.01-.62 6.51-.48 9.6.1 1.95.18 3.8 0 5.25-.57 4.76-1.76 14.67-9.06 22.81a45.45 45.45 0 0 1-12.67 9.82 37.4 37.4 0 0 1-3.37 1.54 30.81 30.81 0 0 1-11.4 2.29Zm-4.88-2.28c6.64 1.24 13.11-.25 18.75-3.1.39-.8 1.52-3.46 1.44-7.49-.1-4.74-.93-6.24-.93-6.26a.9.9 0 0 1 .3-1.21.88.88 0 0 1 1.21.28c.11.18 1.08 1.87 1.2 7.16.05 2.62-.36 4.71-.8 6.19a43.16 43.16 0 0 0 9.83-8.12 29.97 29.97 0 0 0 3.5-4.78c-.33-.8-1.07-3.1-.67-6.96.46-4.5.63-6.95.64-6.97a.89.89 0 1 1 1.77.12c0 .02-.17 2.5-.64 7.04-.2 1.98-.08 3.48.1 4.52 2.85-5.82 3.54-11.56 3.93-14.81.16-1.3.08-3.08-.01-4.95-.15-3.22-.32-6.86.53-10.14.92-3.5 2.72-5.65 3.76-6.8-.83-.2-2-.32-2.67.3a5.62 5.62 0 0 1-2.35 1.33c-.74.25-1.66.57-3.26 1.56-1.47.91-1.5 2.11-1.44 4 .04 1.24.09 2.65-.64 3.9-1.27 2.17-2.81 1.67-3.83 1.34-.56-.18-1.04-.33-1.54-.22-.04.39.28 1.46.53 2.27.56 1.84 1.33 4.36.91 6.9-.23 1.42-.66 2.3-1.34 2.74-.8.52-1.64.3-2.32.13-.9-.23-1.07-.21-1.33.16-.98 1.43-1.26 2.73-1.64 4.53-.16.76-.34 1.62-.6 2.58a4.65 4.65 0 0 1-2.3 3.15c-1.72.87-4.18.63-7.76-.76a21.74 21.74 0 0 0-7.54-1.46h-.02c-.78 0-1.47.37-2.24.93-5.13 4.92-10.78 7.7-16.35 7.96-1.08.04-2.22 0-3.36-.1-1.25.31-2 1.28-2.32 2.2a3.33 3.33 0 0 0 1.25 3.86 71.03 71.03 0 0 0 12.2 7.06c1.29.58 2.58 1.05 3.87 1.41.56-.43 3.2-2.51 5.61-6.11-.18-.43-1.28-3-1.41-5.27-.07-1.14-.1-2.6.09-3.1l1.66.62.02-.07c0 .02-.1.52 0 2.44.07 1.2.48 2.54.81 3.49 2.7-4.7 3.1-6.37 3.1-6.38a.9.9 0 0 1 1.06-.68c.48.1.78.56.69 1.04-.04.2-.48 2.04-3.53 7.29a29.6 29.6 0 0 1-5.92 7.24ZM630.81 69.5a25.25 25.25 0 0 0 3.77 5.93 29.65 29.65 0 0 0 5.6 4.96l3.32-2.68c-1.22-.94-3.17-2.46-4.42-3.53a40.64 40.64 0 0 1-5.77-6.24.9.9 0 0 1-.1-.18c-.1-.14-.24-.32-.38-.54l-2.02 2.28Zm5.91-.18a36.57 36.57 0 0 0 3.52 3.5c.84.72 2.02 1.67 3.08 2.5a5.31 5.31 0 0 1 1.48-4c-3.06-.52-6-1.35-8.08-2Zm-2.05-2.58c1.21.44 7.26 2.58 12.83 3.14.35-.06.71-.1 1.08-.09 1.72.03 3.36-.09 4.88-.36 5.57-1.02 9.2-4.08 11.38-5.9a40.85 40.85 0 0 1 1.32-1.08 43.9 43.9 0 0 0 4.45-5.06c5.64-7.44 5.3-11 5.12-12.71l-.02-.25c-.04-.44-.29-1.24-.55-2.1-.68-2.2-1.62-5.22-.74-7.44.82-2.06 2.9-2.25 4.9-2.42 1.44-.13 2.93-.27 4.1-1.04 2.48-1.65 1.23-5.9.1-8.15-.45-.89-1-1.56-1.5-2.14-.83-1.02-1.69-2.06-1.3-3.64.26-1 .95-1.66 1.63-2.28.85-.8 1.6-1.5 1.56-2.92-.04-1.41-.44-1.56-1.16-1.84a3.11 3.11 0 0 1-1.54-1c-.8-1.06-.34-1.96 0-2.62.23-.47.45-.91.44-1.58 0-.83-1.3-2.18-2.46-3.12-.9 1.06-3.01 2.94-7.71 5.04-2.68 1.2-4.71 1.45-6.86 1.7-3.35.41-7.16.87-14.87 5.33-9.06 5.23-12.9 11.88-15.2 15.85l-.8 1.37c-.2.32-.56 1.07-.85 1.66-.21.44-.4.84-.54 1.09-1.99 3.71-2.83 8.62-2.52 14.61a47.18 47.18 0 0 1 9.43-17.36c9.02-10.39 26.54-16.06 27.28-16.3a.89.89 0 0 1 .54 1.7c-.17.05-16.1 5.21-25.13 14.32 1.75.58 5.82 1.74 8.65 1.09 1.16-.27 2.16-.52 3.05-.74 2.2-.55 3.78-.95 5.64-1.03h.04a.89.89 0 0 1 .03 1.78c-1.6.06-3.04.41-4.98.9l1.73 1.66a.9.9 0 0 1-1.23 1.29l-2.54-2.44-1.35.31c-3.87.89-9.32-1-10.37-1.4 0 .01 0 .02-.02.03a43.87 43.87 0 0 0-6.49 10.02c2.38-1.29 6.25-2.95 8.7-1.72 1.64.81 2.89 2.29 4.1 3.7 1.31 1.56 2.55 3.03 4.18 3.58a.9.9 0 0 1-.57 1.69c-2.1-.71-3.56-2.44-4.97-4.11-.52-.6-1.02-1.2-1.53-1.73-.38 1.16-1 3.35-1.02 5.13-.03 2.55 1.24 6.15 1.25 6.18a.89.89 0 0 1-1.67.6c-.06-.16-1.39-3.93-1.36-6.8.03-2.51 1.05-5.54 1.34-6.34a5.59 5.59 0 0 0-.54-.3c-2.21-1.12-7.31 1.72-8.92 2.8a.88.88 0 0 1-.2.1 40.65 40.65 0 0 0-2.5 8.92c1.23 8.06 3.68 11.66 4.26 12.42Zm35.2-5.62c1.92.04 4.76.37 7.87 1.57 2.99 1.16 5.11 1.44 6.3.83.67-.34 1.13-1 1.4-2.02.25-.92.42-1.72.58-2.5.4-1.84.73-3.44 1.92-5.16 1-1.45 2.4-1.1 3.23-.88.36.1.77.2.9.1.07-.03.36-.28.57-1.53.35-2.13-.32-4.33-.86-6.1-.5-1.63-.86-2.82-.37-3.7.15-.28.46-.63 1.04-.79 1.03-.27 1.89.01 2.58.24.98.3 1.2.39 1.76-.56.46-.8.43-1.84.39-2.94-.06-1.69-.13-3.77 1.84-5.26-.64-1.17-3-5.16-6.56-8.3-3.75-3.28-8.73-5.8-9.94-6.39l-.07.2c-.16.65.1 1.04.95 2.07.52.63 1.17 1.41 1.7 2.48 1.74 3.45 2.6 8.25-.7 10.44-1.54 1.02-3.34 1.18-4.92 1.32-1.91.17-3.01.31-3.4 1.3-.66 1.65.17 4.32.78 6.27.3.98.56 1.83.62 2.46l.02.23c.2 1.94.59 5.97-5.47 13.97-.7.93-1.42 1.81-2.16 2.65ZM338 104.35c0 3.97-.86 7.87-2.58 11.67a72.9 72.9 0 0 1-7.24 12.5c-.12.17-.25.33-.39.48l3.4 4.21c.23.3.25.7.06 1.02a30.8 30.8 0 0 1-5.66 6.55 25.83 25.83 0 0 1-6.95 4.28.9.9 0 0 1-.9-.16l-2.93-2.6a.93.93 0 0 1-.18-.2c-2.57 1.32-7.37 3.1-15.26 3.73-6.99.57-12.72-.31-17.04-2.62-.23-.13-.6-.31-1.01-.5-.7-.35-1.42-.7-1.82-.94l-1.33-.78c-3.86-2.23-11.04-6.38-16.5-15.85-4.64-8.03-5.12-12.03-5.55-15.55a19.5 19.5 0 0 0-1.56-6.34c-2.78-6.2-5.05-7.44-5.07-7.45a.91.91 0 0 1-.46-.58.89.89 0 0 1 .12-.73c.45-.64 2.8-3.89 5.09-3.92 1.1-.02 1.86.36 2.4.64.57.29.59.28.75.16.17-.13.26-.37.4-.74.34-.9.85-2.25 3.47-2.31 2.08-.05 3.24 1.04 4.09 1.94.88-1.77 3.28-6.3 6.44-9.9a33.02 33.02 0 0 1 6.05-5.26 28.55 28.55 0 0 1 2.64-1.66 14.85 14.85 0 0 1-1.1-2.53 3.9 3.9 0 0 0-.94-1.71c-1.9-2.04-.4-5.38-.13-5.79.16-.22.4-.37.68-.4.51-.06.83.23 1.4.76.95.88 2.94 2.71 6.3 3.59 3.01.79 6.51.62 9.6.48 1.95-.1 3.8-.18 5.25 0 4.76.57 14.67 1.76 22.81 9.06a45.43 45.43 0 0 1 9.82 12.67c.58 1.12 1.1 2.25 1.54 3.37a30.81 30.81 0 0 1 2.29 11.4Zm-2.28 4.88c1.24-6.64-.25-13.11-3.1-18.75a16.6 16.6 0 0 0-7.49-1.43c-4.74.1-6.24.92-6.26.92a.9.9 0 0 1-1.21-.3.88.88 0 0 1 .28-1.21c.18-.11 1.87-1.08 7.16-1.2 2.62-.05 4.71.36 6.19.8a43.15 43.15 0 0 0-8.13-9.83 29.95 29.95 0 0 0-4.77-3.5c-.8.33-3.1 1.07-6.96.67-4.5-.46-6.95-.63-6.97-.64a.89.89 0 1 1 .12-1.77c.03 0 2.5.17 7.04.64 1.98.2 3.48.08 4.52-.1-5.82-2.85-11.56-3.54-14.81-3.93-1.3-.16-3.08-.08-4.95.01-3.22.15-6.87.32-10.14-.53a15.67 15.67 0 0 1-6.8-3.76c-.2.83-.32 2 .3 2.67.83.9 1.06 1.57 1.33 2.35.25.74.57 1.66 1.56 3.26.91 1.47 2.11 1.5 4 1.44 1.24-.04 2.64-.09 3.9.64 2.17 1.27 1.67 2.81 1.34 3.83-.18.55-.33 1.04-.22 1.54.39.04 1.46-.28 2.27-.53 1.84-.56 4.36-1.33 6.9-.91 1.43.23 2.3.66 2.74 1.34.52.8.3 1.64.13 2.32-.23.9-.21 1.07.16 1.33 1.42.98 2.73 1.26 4.53 1.64.75.16 1.62.34 2.58.6a4.65 4.65 0 0 1 3.15 2.3c.87 1.72.63 4.18-.76 7.76a21.74 21.74 0 0 0-1.46 7.54v.02c0 .78.37 1.47.93 2.24 4.93 5.13 7.7 10.78 7.96 16.36.05 1.07 0 2.2-.1 3.35.31 1.25 1.28 2 2.2 2.32 1.16.38 2.77.25 3.86-1.25a71.07 71.07 0 0 0 7.06-12.2c.58-1.29 1.05-2.58 1.41-3.87-.43-.56-2.51-3.2-6.11-5.61-.43.18-3 1.28-5.27 1.41-1.14.07-2.6.1-3.1-.09l.62-1.66-.07-.02c.02 0 .52.1 2.44 0 1.2-.07 2.54-.47 3.48-.81-4.69-2.7-6.36-3.1-6.37-3.1a.9.9 0 0 1-.68-1.06.88.88 0 0 1 1.04-.68c.2.03 2.04.46 7.29 3.52a29.58 29.58 0 0 1 7.24 5.92Zm-17.22 33.96a25.24 25.24 0 0 0 5.93-3.76 29.66 29.66 0 0 0 4.96-5.6l-2.68-3.33c-.94 1.22-2.46 3.17-3.53 4.42a40.62 40.62 0 0 1-6.24 5.77.89.89 0 0 1-.18.1l-.54.39 2.28 2.01Zm-.18-5.91a36.58 36.58 0 0 0 3.5-3.52c.73-.84 1.67-2.02 2.5-3.08a5.31 5.31 0 0 1-4-1.48c-.52 3.06-1.35 6-2 8.08Zm-2.58 2.05c.44-1.21 2.58-7.27 3.14-12.83-.06-.35-.1-.71-.09-1.08.03-1.72-.09-3.36-.37-4.88-1.02-5.57-4.07-9.2-5.9-11.38a41.6 41.6 0 0 1-.85-1.02l-.22-.3a43.92 43.92 0 0 0-5.06-4.45c-7.44-5.64-11-5.3-12.71-5.12l-.25.02c-.44.04-1.24.29-2.1.55-2.2.68-5.22 1.62-7.44.74-2.06-.82-2.25-2.9-2.43-4.9-.12-1.44-.26-2.93-1.03-4.1-1.65-2.48-5.9-1.23-8.15-.1-.89.45-1.55 1-2.14 1.5-1.02.83-2.06 1.69-3.64 1.3-1-.26-1.66-.95-2.29-1.63-.8-.85-1.48-1.6-2.91-1.56-1.41.04-1.56.44-1.84 1.16-.18.49-.4 1.1-1 1.54-1.06.8-1.96.34-2.62 0a3.12 3.12 0 0 0-1.58-.44c-.83 0-2.18 1.3-3.12 2.46 1.06.9 2.94 3.01 5.04 7.71a21.24 21.24 0 0 1 1.7 6.86c.41 3.35.87 7.16 5.33 14.87 5.23 9.06 11.88 12.9 15.85 15.2l1.37.8c.32.2 1.07.56 1.67.85.43.21.83.4 1.08.54 3.71 1.99 8.62 2.83 14.61 2.52a47.2 47.2 0 0 1-17.36-9.43c-10.39-9.02-16.06-26.54-16.3-27.28a.89.89 0 0 1 1.7-.54c.05.17 5.21 16.1 14.32 25.13.58-1.75 1.74-5.82 1.09-8.65-.27-1.16-.52-2.16-.74-3.05-.56-2.2-.95-3.78-1.03-5.65v-.03a.89.89 0 0 1 1.78-.03c.06 1.6.41 3.04.9 4.98l1.66-1.73a.9.9 0 0 1 1.29 1.23l-2.44 2.54.31 1.35c.89 3.87-1 9.31-1.4 10.37a43.88 43.88 0 0 0 10.05 6.51c-1.29-2.38-2.95-6.25-1.72-8.7.81-1.64 2.29-2.89 3.7-4.1 1.56-1.31 3.03-2.55 3.58-4.18a.9.9 0 0 1 1.69.57c-.71 2.1-2.44 3.56-4.11 4.97-.6.52-1.2 1.02-1.73 1.53 1.16.38 3.35 1 5.13 1.02 2.54.03 6.15-1.24 6.18-1.25a.89.89 0 1 1 .6 1.67c-.16.06-3.94 1.39-6.8 1.36-2.51-.03-5.54-1.05-6.34-1.34-.12.18-.22.35-.3.53-1.12 2.22 1.73 7.32 2.8 8.93.05.06.08.13.1.2a40.66 40.66 0 0 0 8.92 2.5c8.06-1.23 11.66-3.68 12.42-4.26Zm-5.62-35.2a23.6 23.6 0 0 1 1.57-7.87c1.16-2.99 1.44-5.11.83-6.3-.34-.67-1-1.13-2.02-1.4-.92-.25-1.72-.42-2.5-.58-1.84-.4-3.44-.73-5.16-1.92-1.45-1-1.1-2.4-.88-3.23.1-.36.2-.77.1-.9-.03-.07-.28-.36-1.52-.57-2.14-.35-4.34.32-6.1.86-1.64.5-2.83.86-3.71.37a1.63 1.63 0 0 1-.79-1.04c-.27-1.03.01-1.9.24-2.58.3-.98.39-1.2-.56-1.76-.8-.46-1.84-.43-2.94-.39-1.69.06-3.77.13-5.26-1.84-1.17.64-5.17 3-8.3 6.56-3.29 3.75-5.8 8.73-6.39 9.94l.2.07c.65.16 1.04-.1 2.07-.95a12.9 12.9 0 0 1 2.48-1.7c3.45-1.74 8.25-2.6 10.44.7 1.02 1.54 1.18 3.34 1.32 4.92.17 1.91.31 3.01 1.3 3.4 1.65.66 4.32-.17 6.27-.78.98-.3 1.83-.56 2.46-.62l.23-.02c1.94-.2 5.97-.59 13.97 5.47.93.7 1.81 1.42 2.65 2.16ZM587 104.35c0 3.97-.86 7.87-2.58 11.67a72.9 72.9 0 0 1-7.24 12.5c-.12.17-.25.33-.39.48l3.4 4.21c.23.3.25.7.06 1.02a30.8 30.8 0 0 1-5.66 6.55 25.83 25.83 0 0 1-6.95 4.28.9.9 0 0 1-.9-.16l-2.93-2.6a.93.93 0 0 1-.18-.2c-2.57 1.32-7.37 3.1-15.26 3.73-6.99.57-12.72-.31-17.03-2.62-.24-.13-.61-.31-1.02-.5-.7-.35-1.42-.7-1.82-.94l-1.33-.78c-3.86-2.23-11.04-6.38-16.5-15.85-4.64-8.03-5.12-12.03-5.55-15.55a19.5 19.5 0 0 0-1.56-6.34c-2.78-6.2-5.05-7.44-5.07-7.45a.91.91 0 0 1-.46-.58.89.89 0 0 1 .12-.73c.45-.64 2.8-3.89 5.09-3.92 1.1-.02 1.86.36 2.4.64.57.29.59.28.75.16.17-.13.26-.37.4-.74.34-.9.85-2.25 3.47-2.31 2.08-.05 3.24 1.04 4.09 1.94.88-1.77 3.28-6.3 6.44-9.9a33.02 33.02 0 0 1 6.05-5.26 28.55 28.55 0 0 1 2.64-1.66 14.85 14.85 0 0 1-1.1-2.53 3.9 3.9 0 0 0-.94-1.71c-1.9-2.04-.4-5.38-.13-5.79.16-.22.4-.37.68-.4.51-.06.83.23 1.4.76.95.88 2.94 2.71 6.3 3.59 3.01.79 6.51.62 9.6.48 1.96-.1 3.8-.18 5.25 0 4.76.57 14.67 1.76 22.81 9.06a45.43 45.43 0 0 1 9.82 12.67c.58 1.12 1.1 2.25 1.54 3.37a30.81 30.81 0 0 1 2.29 11.4Zm-2.28 4.88c1.25-6.64-.25-13.11-3.1-18.75a16.6 16.6 0 0 0-7.49-1.43c-4.74.1-6.24.92-6.26.92a.9.9 0 0 1-1.21-.3.88.88 0 0 1 .28-1.21c.18-.11 1.87-1.08 7.15-1.2 2.63-.05 4.72.36 6.2.8a43.15 43.15 0 0 0-8.13-9.83 29.95 29.95 0 0 0-4.77-3.5c-.8.33-3.1 1.07-6.96.67-4.5-.46-6.95-.63-6.97-.64a.89.89 0 1 1 .12-1.77c.02 0 2.5.17 7.04.64 1.98.2 3.48.08 4.52-.1-5.82-2.85-11.56-3.54-14.81-3.93-1.3-.16-3.08-.08-4.95.01-3.22.15-6.87.32-10.14-.53a15.67 15.67 0 0 1-6.8-3.76c-.2.83-.32 2 .3 2.67.83.9 1.06 1.57 1.33 2.35.25.74.57 1.66 1.56 3.26.91 1.47 2.11 1.5 4 1.44 1.24-.04 2.64-.09 3.9.64 2.17 1.27 1.67 2.81 1.34 3.83-.18.55-.34 1.04-.22 1.54.39.04 1.46-.28 2.27-.53 1.84-.56 4.36-1.33 6.9-.91 1.42.23 2.3.66 2.74 1.34.52.8.3 1.64.13 2.32-.23.9-.21 1.07.16 1.33 1.42.98 2.73 1.26 4.53 1.64.75.16 1.62.34 2.58.6a4.65 4.65 0 0 1 3.14 2.3c.88 1.72.64 4.18-.75 7.76a21.74 21.74 0 0 0-1.46 7.54v.02c0 .78.37 1.47.93 2.24 4.92 5.13 7.7 10.78 7.96 16.36.05 1.07 0 2.2-.1 3.35.31 1.25 1.28 2 2.2 2.32 1.16.38 2.77.25 3.86-1.25a71.07 71.07 0 0 0 7.06-12.2c.58-1.29 1.05-2.58 1.41-3.87-.43-.56-2.51-3.2-6.11-5.61-.43.18-3 1.28-5.27 1.41-1.14.07-2.6.1-3.1-.09l.62-1.66-.07-.02c.02 0 .52.1 2.44 0 1.2-.07 2.54-.47 3.49-.81-4.7-2.7-6.37-3.1-6.38-3.1a.9.9 0 0 1-.68-1.06.88.88 0 0 1 1.04-.68c.2.03 2.04.46 7.29 3.52a29.58 29.58 0 0 1 7.24 5.92Zm-17.22 33.96a25.24 25.24 0 0 0 5.93-3.76 29.66 29.66 0 0 0 4.96-5.6l-2.68-3.33c-.94 1.22-2.46 3.17-3.53 4.42a40.62 40.62 0 0 1-6.24 5.77.89.89 0 0 1-.18.1l-.54.39 2.28 2.01Zm-.18-5.91a36.58 36.58 0 0 0 3.5-3.52c.72-.84 1.67-2.02 2.5-3.08a5.31 5.31 0 0 1-4-1.48c-.52 3.06-1.35 6-2 8.08Zm-2.59 2.05c.45-1.21 2.59-7.27 3.15-12.83-.06-.35-.1-.71-.09-1.08.03-1.72-.09-3.36-.37-4.88-1.01-5.57-4.07-9.2-5.9-11.38a41.6 41.6 0 0 1-.85-1.02l-.22-.3a43.92 43.92 0 0 0-5.06-4.45c-7.44-5.64-11-5.3-12.71-5.12l-.25.02c-.44.04-1.24.29-2.1.55-2.2.68-5.22 1.62-7.44.74-2.06-.82-2.25-2.9-2.42-4.9-.13-1.44-.27-2.93-1.04-4.1-1.65-2.48-5.9-1.23-8.15-.1-.89.45-1.55 1-2.14 1.5-1.02.83-2.06 1.69-3.64 1.3-1-.26-1.66-.95-2.28-1.63-.8-.85-1.5-1.6-2.92-1.56-1.41.04-1.56.44-1.84 1.16-.18.49-.4 1.1-1 1.54-1.06.8-1.96.34-2.62 0a3.12 3.12 0 0 0-1.58-.44c-.83 0-2.18 1.3-3.12 2.46 1.06.9 2.94 3.01 5.04 7.71a21.24 21.24 0 0 1 1.7 6.86c.41 3.35.87 7.16 5.33 14.87 5.23 9.06 11.88 12.9 15.85 15.2l1.37.8c.32.2 1.07.56 1.67.85.43.21.83.4 1.08.54 3.71 1.99 8.62 2.83 14.61 2.52a47.2 47.2 0 0 1-17.36-9.43c-10.39-9.02-16.06-26.54-16.3-27.28a.89.89 0 0 1 1.7-.54c.05.17 5.21 16.1 14.32 25.13.58-1.75 1.74-5.82 1.09-8.65-.27-1.16-.52-2.16-.74-3.05-.55-2.2-.95-3.78-1.03-5.65v-.03a.89.89 0 0 1 1.78-.03c.07 1.6.41 3.04.9 4.98l1.66-1.73a.9.9 0 0 1 1.29 1.23l-2.44 2.54.31 1.35c.89 3.87-1 9.31-1.4 10.37a43.88 43.88 0 0 0 10.05 6.51c-1.29-2.38-2.95-6.25-1.72-8.7.82-1.64 2.28-2.89 3.7-4.1 1.56-1.31 3.03-2.55 3.58-4.18a.9.9 0 0 1 1.69.57c-.71 2.1-2.44 3.56-4.11 4.97-.6.52-1.2 1.02-1.73 1.53 1.16.38 3.35 1 5.13 1.02 2.55.03 6.15-1.24 6.18-1.25a.89.89 0 1 1 .6 1.67c-.16.06-3.94 1.39-6.8 1.36-2.51-.03-5.54-1.05-6.34-1.34-.12.18-.22.35-.3.53-1.12 2.22 1.73 7.32 2.8 8.93.05.06.08.13.1.2 5.07 2 8.83 2.49 8.9 2.5h.02c8.06-1.23 11.66-3.68 12.41-4.26Zm-5.61-35.2a23.6 23.6 0 0 1 1.57-7.87c1.16-2.99 1.44-5.11.83-6.3-.34-.67-1-1.13-2.02-1.4-.92-.25-1.72-.42-2.5-.58-1.84-.4-3.44-.73-5.16-1.92-1.45-1-1.1-2.4-.88-3.23.1-.36.2-.77.1-.9-.03-.07-.28-.36-1.52-.57-2.14-.35-4.34.32-6.1.86-1.64.5-2.83.86-3.71.37a1.63 1.63 0 0 1-.79-1.04c-.27-1.03.01-1.9.24-2.58.3-.98.39-1.2-.56-1.76-.8-.46-1.84-.43-2.94-.39-1.69.06-3.77.13-5.26-1.84-1.17.64-5.16 3-8.3 6.56-3.28 3.75-5.8 8.73-6.39 9.94l.2.07c.65.16 1.04-.1 2.07-.95a12.9 12.9 0 0 1 2.48-1.7c3.45-1.74 8.25-2.6 10.44.7 1.02 1.54 1.18 3.34 1.32 4.92.17 1.91.31 3.01 1.3 3.4 1.65.66 4.32-.17 6.27-.78.98-.3 1.83-.56 2.46-.62l.23-.02c1.94-.2 5.97-.59 13.97 5.47.93.7 1.81 1.42 2.65 2.16ZM836 104.35c0 3.97-.86 7.87-2.58 11.67a72.9 72.9 0 0 1-7.24 12.5c-.12.17-.25.33-.39.48l3.4 4.21c.23.3.25.7.06 1.02a30.8 30.8 0 0 1-5.66 6.55 25.83 25.83 0 0 1-6.95 4.28.9.9 0 0 1-.9-.16l-2.93-2.6a.93.93 0 0 1-.18-.2c-2.57 1.32-7.37 3.1-15.26 3.73-6.99.57-12.72-.31-17.03-2.62-.24-.13-.61-.31-1.02-.5-.7-.35-1.42-.7-1.82-.94l-1.33-.78c-3.86-2.23-11.04-6.38-16.5-15.85-4.64-8.03-5.12-12.03-5.55-15.55a19.5 19.5 0 0 0-1.56-6.34c-2.78-6.2-5.05-7.44-5.07-7.45a.91.91 0 0 1-.46-.58.89.89 0 0 1 .12-.73c.45-.64 2.8-3.89 5.09-3.92 1.1-.02 1.86.36 2.4.64.57.29.59.28.75.16.17-.13.26-.37.4-.74.34-.9.85-2.25 3.47-2.31 2.08-.05 3.24 1.04 4.09 1.94.88-1.77 3.28-6.3 6.44-9.9a33.02 33.02 0 0 1 6.05-5.26 28.55 28.55 0 0 1 2.64-1.66 14.85 14.85 0 0 1-1.1-2.53 3.9 3.9 0 0 0-.94-1.71c-1.9-2.04-.4-5.38-.13-5.79.16-.22.4-.37.68-.4.51-.06.83.23 1.4.76.95.88 2.94 2.71 6.3 3.59 3.01.79 6.51.62 9.6.48 1.96-.1 3.8-.18 5.25 0 4.76.57 14.67 1.76 22.81 9.06a45.43 45.43 0 0 1 9.82 12.67c.58 1.12 1.1 2.25 1.54 3.37a30.81 30.81 0 0 1 2.29 11.4Zm-2.28 4.88c1.25-6.64-.25-13.11-3.1-18.75a16.6 16.6 0 0 0-7.49-1.43c-4.74.1-6.24.92-6.26.92a.9.9 0 0 1-1.21-.3.88.88 0 0 1 .28-1.21c.18-.11 1.87-1.08 7.15-1.2 2.63-.05 4.72.36 6.2.8a43.15 43.15 0 0 0-8.13-9.83 29.95 29.95 0 0 0-4.77-3.5c-.8.33-3.1 1.07-6.96.67-4.5-.46-6.95-.63-6.97-.64a.89.89 0 1 1 .12-1.77c.02 0 2.5.17 7.04.64 1.98.2 3.48.08 4.52-.1-5.82-2.85-11.56-3.54-14.81-3.93-1.3-.16-3.08-.08-4.95.01-3.22.15-6.87.32-10.14-.53a15.67 15.67 0 0 1-6.8-3.76c-.2.83-.32 2 .3 2.67.83.9 1.06 1.57 1.33 2.35.25.74.57 1.66 1.56 3.26.91 1.47 2.11 1.5 4 1.44 1.24-.04 2.64-.09 3.9.64 2.17 1.27 1.67 2.81 1.34 3.83-.18.55-.34 1.04-.22 1.54.39.04 1.46-.28 2.27-.53 1.84-.56 4.36-1.33 6.9-.91 1.42.23 2.3.66 2.74 1.34.52.8.3 1.64.13 2.32-.23.9-.21 1.07.16 1.33 1.42.98 2.73 1.26 4.53 1.64.75.16 1.62.34 2.58.6a4.65 4.65 0 0 1 3.14 2.3c.88 1.72.64 4.18-.75 7.76a21.74 21.74 0 0 0-1.46 7.54v.02c0 .78.37 1.47.93 2.24 4.92 5.13 7.7 10.78 7.96 16.36.05 1.07 0 2.2-.1 3.35.31 1.25 1.28 2 2.2 2.32 1.16.38 2.77.25 3.86-1.25a71.07 71.07 0 0 0 7.06-12.2c.58-1.29 1.05-2.58 1.41-3.87-.43-.56-2.51-3.2-6.11-5.61-.43.18-3 1.28-5.27 1.41-1.14.07-2.6.1-3.1-.09l.62-1.66-.07-.02c.02 0 .52.1 2.44 0 1.2-.07 2.54-.47 3.49-.81-4.7-2.7-6.37-3.1-6.38-3.1a.9.9 0 0 1-.68-1.06.88.88 0 0 1 1.04-.68c.2.03 2.04.46 7.29 3.52a29.58 29.58 0 0 1 7.24 5.92Zm-17.22 33.96a25.24 25.24 0 0 0 5.93-3.76 29.66 29.66 0 0 0 4.96-5.6l-2.68-3.33c-.94 1.22-2.46 3.17-3.53 4.42a40.62 40.62 0 0 1-6.24 5.77.89.89 0 0 1-.18.1l-.54.39 2.28 2.01Zm-.18-5.91a36.58 36.58 0 0 0 3.5-3.52c.72-.84 1.67-2.02 2.5-3.08a5.31 5.31 0 0 1-4-1.48c-.52 3.06-1.35 6-2 8.08Zm-2.59 2.05c.45-1.21 2.59-7.27 3.15-12.83-.06-.35-.1-.71-.09-1.08.03-1.72-.09-3.36-.37-4.88-1.01-5.57-4.07-9.2-5.9-11.38a41.6 41.6 0 0 1-.85-1.02l-.22-.3a43.92 43.92 0 0 0-5.06-4.45c-7.44-5.64-11-5.3-12.71-5.12l-.25.02c-.44.04-1.24.29-2.1.55-2.2.68-5.22 1.62-7.44.74-2.06-.82-2.25-2.9-2.42-4.9-.13-1.44-.27-2.93-1.04-4.1-1.65-2.48-5.9-1.23-8.15-.1-.89.45-1.55 1-2.14 1.5-1.02.83-2.06 1.69-3.64 1.3-1-.26-1.66-.95-2.28-1.63-.8-.85-1.5-1.6-2.92-1.56-1.41.04-1.56.44-1.84 1.16-.18.49-.4 1.1-1 1.54-1.06.8-1.96.34-2.62 0a3.12 3.12 0 0 0-1.58-.44c-.83 0-2.18 1.3-3.12 2.46 1.06.9 2.94 3.01 5.04 7.71a21.24 21.24 0 0 1 1.7 6.86c.41 3.35.87 7.16 5.33 14.87 5.23 9.06 11.88 12.9 15.85 15.2l1.37.8c.32.2 1.07.56 1.67.85.43.21.83.4 1.08.54 3.71 1.99 8.62 2.83 14.61 2.52a47.2 47.2 0 0 1-17.36-9.43c-10.39-9.02-16.06-26.54-16.3-27.28a.89.89 0 0 1 1.7-.54c.05.17 5.21 16.1 14.32 25.13.58-1.75 1.74-5.82 1.09-8.65-.27-1.16-.52-2.16-.74-3.05-.55-2.2-.95-3.78-1.03-5.65v-.03a.89.89 0 0 1 1.78-.03c.07 1.6.41 3.04.9 4.98l1.66-1.73a.9.9 0 0 1 1.29 1.23l-2.44 2.54.31 1.35c.89 3.87-1 9.31-1.4 10.37a43.88 43.88 0 0 0 10.05 6.51c-1.29-2.38-2.95-6.25-1.72-8.7.82-1.64 2.28-2.89 3.7-4.1 1.56-1.31 3.03-2.55 3.58-4.18a.9.9 0 0 1 1.69.57c-.71 2.1-2.44 3.56-4.11 4.97-.6.52-1.2 1.02-1.73 1.53 1.16.38 3.35 1 5.13 1.02 2.55.03 6.15-1.24 6.18-1.25a.89.89 0 1 1 .6 1.67c-.16.06-3.94 1.39-6.8 1.36-2.51-.03-5.54-1.05-6.34-1.34-.12.18-.22.35-.3.53-1.12 2.22 1.73 7.32 2.8 8.93.05.06.08.13.1.2 5.07 2 8.83 2.49 8.9 2.5h.02c8.06-1.23 11.66-3.68 12.41-4.26Zm-5.61-35.2a23.6 23.6 0 0 1 1.57-7.87c1.16-2.99 1.44-5.11.83-6.3-.34-.67-1-1.13-2.02-1.4-.92-.25-1.72-.42-2.5-.58-1.84-.4-3.44-.73-5.16-1.92-1.45-1-1.1-2.4-.88-3.23.1-.36.2-.77.1-.9-.03-.07-.28-.36-1.52-.57-2.14-.35-4.34.32-6.1.86-1.64.5-2.83.86-3.71.37a1.63 1.63 0 0 1-.79-1.04c-.27-1.03.01-1.9.24-2.58.3-.98.39-1.2-.56-1.76-.8-.46-1.84-.43-2.94-.39-1.69.06-3.77.13-5.26-1.84-1.17.64-5.16 3-8.3 6.56-3.28 3.75-5.8 8.73-6.39 9.94l.2.07c.65.16 1.04-.1 2.07-.95a12.9 12.9 0 0 1 2.48-1.7c3.45-1.74 8.25-2.6 10.44.7 1.02 1.54 1.18 3.34 1.32 4.92.17 1.91.31 3.01 1.3 3.4 1.65.66 4.32-.17 6.27-.78.98-.3 1.83-.56 2.46-.62l.23-.02c1.94-.2 5.97-.59 13.97 5.47.93.7 1.81 1.42 2.65 2.16Z" fill="#DFE2EB"/></svg>